<svg width="53" height="48" viewBox="0 0 53 48" fill="none" xmlns="http://www.w3.org/2000/svg">
<path d="M52.0919 39.161C52.0919 43.5031 48.572 47.0231 44.2299 47.0231L32.4368 47.0231C28.0947 47.0231 24.5747 43.5031 24.5747 39.161L24.5747 27.3679C24.5747 23.0258 28.0947 19.5058 32.4368 19.5058H44.2299C48.572 19.5058 52.0919 23.0258 52.0919 27.3679V39.161Z" fill="#C8FDC5"/>
<path d="M19.8736 14.1954C19.8736 17.3314 17.3314 19.8736 14.1954 19.8736H5.67816C2.5422 19.8736 -2.74154e-07 17.3314 0 14.1954L7.44601e-07 5.67816C1.01876e-06 2.5422 2.5422 -2.74154e-07 5.67816 0L14.1954 7.44601e-07C17.3314 1.01876e-06 19.8736 2.5422 19.8736 5.67816V14.1954Z" fill="#C8FDC5"/>
</svg>
