<svg width="137" height="103" viewBox="0 0 137 103" fill="none" xmlns="http://www.w3.org/2000/svg">
<path d="M25.2423 63.9848C25.2423 55.3658 32.2293 48.3788 40.8483 48.3788H64.2574C72.8764 48.3788 79.8635 55.3659 79.8635 63.9848V87.3939C79.8635 96.0129 72.8764 103 64.2574 103H40.8483C32.2293 103 25.2423 96.0129 25.2423 87.3939V63.9848Z" fill="#C8FDC5"/>
<path d="M76.7422 28.3138C76.7422 23.8812 80.3356 20.2879 84.7682 20.2879H96.8072C101.24 20.2879 104.833 23.8812 104.833 28.3138V40.3528C104.833 44.7854 101.24 48.3788 96.8072 48.3788H84.7682C80.3356 48.3788 76.7422 44.7854 76.7422 40.3528V28.3138Z" fill="#C8FDC5"/>
<path d="M107.954 56.4048C107.954 51.9721 111.548 48.3788 115.98 48.3788H128.019C132.452 48.3788 136.045 51.9721 136.045 56.4048V68.4437C136.045 72.8763 132.452 76.4697 128.019 76.4697H115.98C111.548 76.4697 107.954 72.8763 107.954 68.4437V56.4048Z" fill="#C8FDC5"/>
<path d="M111.076 5.79653C111.076 2.59519 113.671 -7.62939e-06 116.872 -7.62939e-06H125.567C128.769 -7.62939e-06 131.364 2.59519 131.364 5.79653V14.4913C131.364 17.6927 128.769 20.2879 125.567 20.2879H116.872C113.671 20.2879 111.076 17.6927 111.076 14.4913V5.79653Z" fill="#C8FDC5"/>
<path d="M0.272705 33.8874C0.272705 30.6861 2.8679 28.0909 6.06924 28.0909H14.764C17.9654 28.0909 20.5606 30.6861 20.5606 33.8874V42.5822C20.5606 45.7836 17.9654 48.3788 14.764 48.3788H6.06924C2.8679 48.3788 0.272705 45.7836 0.272705 42.5822V33.8874Z" fill="#C8FDC5"/>
</svg>
