<svg width="108" height="86" viewBox="0 0 108 86" fill="none" xmlns="http://www.w3.org/2000/svg">
<path d="M88.2862 50.5237C88.2862 57.3285 82.7698 62.8449 75.965 62.8449L57.4833 62.8448C50.6785 62.8448 45.1622 57.3285 45.1622 50.5237V32.042C45.1622 25.2372 50.6785 19.7208 57.4833 19.7208L75.965 19.7208C82.7698 19.7208 88.2862 25.2372 88.2862 32.042L88.2862 50.5237Z" fill="#C8FDC5"/>
<path d="M42.3273 78.6863C42.3273 82.1859 39.4903 85.0229 35.9907 85.0229L26.4858 85.0229C22.9862 85.0229 20.1492 82.1859 20.1492 78.6863L20.1492 69.1814C20.1492 65.6818 22.9862 62.8448 26.4858 62.8448L35.9907 62.8448C39.4903 62.8448 42.3273 65.6818 42.3273 69.1814V78.6863Z" fill="#C8FDC5"/>
<path d="M42.3273 16.219C42.3273 19.7186 39.4903 22.5556 35.9907 22.5556H26.4858C22.9862 22.5556 20.1492 19.7186 20.1492 16.219V6.7141C20.1492 3.21449 22.9862 0.377502 26.4858 0.377502L35.9907 0.377503C39.4903 0.377504 42.3273 3.21449 42.3273 6.7141L42.3273 16.219Z" fill="#C8FDC5"/>
<path d="M16.0175 58.5648C16.0175 61.0923 13.9686 63.1413 11.4411 63.1413H4.57643C2.04894 63.1413 -2.2096e-07 61.0923 0 58.5648L6.00126e-07 51.7002C8.21087e-07 49.1727 2.04894 47.1238 4.57643 47.1238L11.4411 47.1238C13.9686 47.1238 16.0175 49.1727 16.0175 51.7002V58.5648Z" fill="#C8FDC5"/>
<path d="M108 74.2859C108 76.8134 105.951 78.8624 103.424 78.8624H96.5589C94.0314 78.8624 91.9825 76.8134 91.9825 74.2859V67.4213C91.9825 64.8938 94.0314 62.8449 96.5589 62.8449L103.424 62.8449C105.951 62.8449 108 64.8938 108 67.4213V74.2859Z" fill="#C8FDC5"/>
</svg>
