<svg width="40" height="40" viewBox="0 0 40 40" fill="none" xmlns="http://www.w3.org/2000/svg">
<path d="M18.8284 38.8258V35.2177C18.8284 35.2127 18.8265 35.2078 18.823 35.2041C18.8195 35.2004 18.8147 35.1982 18.8097 35.1979C15.0982 34.8493 11.8899 33.4059 9.25453 30.7768C6.61918 28.1477 5.15799 24.9446 4.80104 21.2039C4.80079 21.199 4.79873 21.1944 4.79526 21.1909C4.79179 21.1874 4.78716 21.1854 4.78226 21.1851H1.19713C0.886275 21.1851 0.588151 21.0616 0.368343 20.8418C0.148536 20.622 0.0250489 20.3239 0.0250489 20.013V20.0016C0.0250489 19.6907 0.148536 19.3926 0.368343 19.1728C0.588151 18.953 0.886275 18.8295 1.19713 18.8295H4.69667C4.70143 18.8295 4.70605 18.8279 4.70969 18.8248C4.71334 18.8218 4.71575 18.8175 4.7165 18.8128C6.02635 10.7095 10.6792 6.05349 18.7867 4.71964C18.7913 4.71912 18.7956 4.71691 18.7986 4.71345C18.8017 4.70998 18.8034 4.70549 18.8034 4.70085V1.20339C18.8034 0.892718 18.9267 0.594753 19.1463 0.374975C19.3659 0.155197 19.6638 0.0315883 19.9744 0.0313116H19.9859C20.2968 0.0313116 20.5949 0.154798 20.8147 0.374606C21.0345 0.594414 21.158 0.892537 21.158 1.20339V4.69667C21.1581 4.70138 21.1599 4.7059 21.1629 4.7095C21.1659 4.71309 21.1701 4.71556 21.1747 4.7165C29.2937 6.018 33.9559 10.6865 35.2856 18.8128C35.2861 18.8174 35.2883 18.8217 35.2918 18.8247C35.2952 18.8278 35.2997 18.8295 35.3044 18.8295H38.8258C39.1367 18.8295 39.4348 18.953 39.6546 19.1728C39.8744 19.3926 39.9979 19.6907 39.9979 20.0016C39.9978 20.1553 39.9674 20.3076 39.9084 20.4496C39.8494 20.5916 39.763 20.7207 39.6542 20.8293C39.5453 20.938 39.4162 21.0241 39.274 21.0828C39.1319 21.1415 38.9796 21.1717 38.8258 21.1716H35.2136C35.2087 21.1718 35.204 21.1739 35.2006 21.1773C35.1971 21.1808 35.195 21.1854 35.1948 21.1903C34.842 24.9414 33.385 28.1425 30.7465 30.7757C28.108 33.409 24.9018 34.8524 21.1903 35.1979C21.1853 35.1982 21.1805 35.2004 21.177 35.2041C21.1735 35.2078 21.1716 35.2127 21.1716 35.2177V38.8258C21.1716 39.1367 21.0481 39.4348 20.8283 39.6546C20.6085 39.8744 20.3103 39.9979 19.9995 39.9979C19.8456 39.9979 19.6932 39.9676 19.5511 39.9087C19.409 39.8498 19.2798 39.7634 19.1711 39.6546C19.0623 39.5457 18.9761 39.4165 18.9173 39.2743C18.8585 39.1321 18.8283 38.9797 18.8284 38.8258ZM7.10972 19.9796C7.09615 27.0821 12.8835 32.883 19.9901 32.8903C27.0789 32.8976 32.8631 27.1363 32.8903 20.0391C32.9174 12.9419 27.1363 7.12955 20.0297 7.10972C12.9232 7.08989 7.12329 12.872 7.10972 19.9796ZM40 7.11285V0.595956C40 0.437899 39.9372 0.286315 39.8254 0.174552C39.7137 0.0627885 39.5621 4.66816e-07 39.404 4.66816e-07H32.9185C32.7649 -0.000136813 32.6128 0.0300053 32.471 0.0887019C32.3291 0.147398 32.2002 0.233497 32.0916 0.342072C31.983 0.450646 31.8969 0.579565 31.8382 0.72145C31.7795 0.863336 31.7494 1.0154 31.7495 1.16895V1.18878C31.7495 1.34224 31.7798 1.4942 31.8385 1.63596C31.8973 1.77773 31.9834 1.90652 32.0919 2.01498C32.2005 2.12345 32.3294 2.20945 32.4712 2.26808C32.613 2.32672 32.765 2.35682 32.9185 2.35669H37.0661C37.2242 2.35669 37.3758 2.41947 37.4875 2.53124C37.5993 2.643 37.6621 2.79458 37.6621 2.95264V7.11285C37.6624 7.42279 37.7856 7.71996 38.0048 7.93912C38.2239 8.15828 38.5211 8.28152 38.831 8.2818C39.1411 8.2818 39.4384 8.15864 39.6576 7.93942C39.8768 7.7202 40 7.42288 40 7.11285ZM0.591781 40H7.11703C7.26994 40 7.42135 39.9699 7.56261 39.9113C7.70387 39.8528 7.8322 39.767 7.94028 39.6588C8.04835 39.5506 8.13405 39.4222 8.19247 39.2809C8.25089 39.1396 8.28089 38.9881 8.28076 38.8352V38.7997C8.28076 38.491 8.15818 38.1949 7.93997 37.9765C7.72176 37.7581 7.42576 37.6352 7.11703 37.635H2.92237C2.76542 37.635 2.6149 37.5726 2.50392 37.4616C2.39294 37.3507 2.33059 37.2001 2.33059 37.0432V32.9091C2.33059 32.6001 2.20788 32.3039 1.98944 32.0854C1.771 31.867 1.47474 31.7443 1.16582 31.7443C1.01277 31.7442 0.861196 31.7742 0.719758 31.8327C0.578321 31.8911 0.449794 31.9769 0.341524 32.0851C0.233254 32.1933 0.147364 32.3217 0.088763 32.4631C0.0301623 32.6045 -6.14426e-08 32.756 0 32.9091L0 39.4082C0 39.4859 0.0153069 39.5629 0.0450466 39.6347C0.0747864 39.7065 0.118377 39.7717 0.173329 39.8267C0.22828 39.8816 0.293518 39.9252 0.365316 39.955C0.437114 39.9847 0.514067 40 0.591781 40ZM32.8882 40H39.403C39.5613 40 39.7132 39.9371 39.8251 39.8251C39.9371 39.7132 40 39.5613 40 39.403V32.8882C40 32.7342 39.9696 32.5818 39.9105 32.4396C39.8515 32.2975 39.7649 32.1684 39.6558 32.0598C39.5467 31.9512 39.4172 31.8652 39.2748 31.8067C39.1323 31.7483 38.9798 31.7186 38.8258 31.7192H38.8123C38.6587 31.7191 38.5065 31.7492 38.3646 31.8079C38.2227 31.8666 38.0937 31.9527 37.985 32.0612C37.8764 32.1698 37.7902 32.2987 37.7313 32.4406C37.6725 32.5825 37.6423 32.7346 37.6423 32.8882V37.063C37.6423 37.2213 37.5794 37.3732 37.4674 37.4852C37.3555 37.5971 37.2036 37.66 37.0453 37.66H32.8882C32.5779 37.66 32.2803 37.7833 32.0609 38.0027C31.8415 38.2221 31.7182 38.5197 31.7182 38.83C31.7182 39.1403 31.8415 39.4379 32.0609 39.6573C32.2803 39.8767 32.5779 40 32.8882 40ZM1.16791 8.26197H1.19504C1.34625 8.26266 1.4961 8.23347 1.63599 8.17608C1.77589 8.11869 1.90307 8.03423 2.01023 7.92756C2.11739 7.82088 2.20243 7.69409 2.26045 7.55445C2.31847 7.41482 2.34834 7.2651 2.34834 7.1139V2.91089C2.34834 2.75699 2.40948 2.60939 2.5183 2.50056C2.62713 2.39173 2.77473 2.33059 2.92864 2.33059H7.10868C7.41274 2.32922 7.70396 2.20782 7.91897 1.99281C8.13398 1.7778 8.25538 1.48658 8.25675 1.18252C8.25675 0.87803 8.13579 0.586012 7.92049 0.370706C7.70518 0.1554 7.41316 0.0344427 7.10868 0.0344427H0.594912C0.442798 0.0344181 0.296756 0.094122 0.188224 0.200702C0.079692 0.307282 0.0173477 0.452217 0.0146119 0.604306V7.10868C0.013921 7.26032 0.0432802 7.4106 0.100994 7.55084C0.158708 7.69108 0.243632 7.81849 0.350864 7.92572C0.458095 8.03295 0.585507 8.11788 0.725743 8.17559C0.865979 8.2333 1.01626 8.26266 1.16791 8.26197ZM17.6584 24.669C17.3485 24.6687 17.0513 24.5455 16.8322 24.3263C16.613 24.1072 16.4898 23.81 16.4895 23.5001V22.3927C16.4896 22.39 16.4892 22.3873 16.4883 22.3848C16.4874 22.3823 16.4859 22.3799 16.4841 22.378C16.4822 22.376 16.48 22.3745 16.4775 22.3734C16.475 22.3724 16.4724 22.3718 16.4697 22.3718H14.1652C14.1625 22.3718 14.1598 22.3724 14.1573 22.3734C14.1549 22.3745 14.1526 22.376 14.1508 22.378C14.1489 22.3799 14.1475 22.3823 14.1465 22.3848C14.1456 22.3873 14.1452 22.39 14.1453 22.3927V23.5001C14.1451 23.81 14.0218 24.1072 13.8027 24.3263C13.5835 24.5455 13.2863 24.6687 12.9764 24.669H12.9639C12.6543 24.669 12.3573 24.5463 12.138 24.3278C11.9187 24.1093 11.795 23.8128 11.7939 23.5032C11.7939 22.1944 11.7939 20.0945 11.8012 18.8806C11.8179 17.2107 12.9597 15.7349 14.591 15.3905C15.3551 15.2218 16.1538 15.3183 16.8557 15.6641C17.5577 16.01 18.1209 16.5845 18.4527 17.2931C18.6685 17.7514 18.7902 18.2482 18.8107 18.7543C18.8368 20.012 18.8368 22.1735 18.8326 23.5074C18.8307 23.8163 18.7065 24.1119 18.4873 24.3296C18.2681 24.5473 17.9716 24.6693 17.6626 24.669H17.6584ZM16.4519 19.9807C16.4546 19.9808 16.4572 19.9804 16.4597 19.9795C16.4622 19.9785 16.4644 19.9771 16.4663 19.9752C16.4682 19.9733 16.4696 19.9711 16.4706 19.9686C16.4715 19.9662 16.4719 19.9635 16.4718 19.9609C16.4718 19.5204 16.5031 19.0988 16.4644 18.6834C16.4308 18.3998 16.2941 18.1385 16.0803 17.949C15.8666 17.7596 15.5908 17.6553 15.3052 17.656C15.0196 17.6566 14.7442 17.7622 14.5313 17.9525C14.3185 18.1429 14.183 18.4049 14.1506 18.6886C14.1151 19.1061 14.1432 19.5235 14.1432 19.9609C14.1432 19.9661 14.1453 19.9712 14.1491 19.9749C14.1528 19.9786 14.1578 19.9807 14.1631 19.9807H16.4519ZM21.1872 24.1993V15.809C21.1872 15.6815 21.2371 15.5591 21.3263 15.468C21.4154 15.3769 21.5367 15.3243 21.6642 15.3216C23.4479 15.2788 25.2326 15.1661 26.7032 16.5678C27.3894 17.2051 27.8689 18.0334 28.0798 18.9459C28.2907 19.8584 28.2233 20.8131 27.8863 21.6869C27.5492 22.5607 26.9581 23.3134 26.1891 23.848C25.4201 24.3825 24.5085 24.6743 23.5721 24.6857C22.9459 24.692 22.3196 24.6857 21.6757 24.6857C21.5465 24.6857 21.4226 24.6345 21.331 24.5434C21.2395 24.4522 21.1878 24.3285 21.1872 24.1993ZM23.5282 22.3071C23.5285 22.3125 23.5308 22.3175 23.5347 22.3212C23.5386 22.3249 23.5438 22.3269 23.5491 22.3269C23.866 22.3238 24.179 22.256 24.4689 22.1279C24.7588 21.9997 25.0195 21.8139 25.2351 21.5816C25.4508 21.3493 25.6169 21.0756 25.7232 20.777C25.8295 20.4784 25.8739 20.1613 25.8536 19.845C25.7795 18.6291 24.6586 17.5812 23.547 17.6992C23.5419 17.6997 23.5371 17.7021 23.5336 17.706C23.5301 17.7098 23.5282 17.7148 23.5282 17.72V22.3071Z" fill="#C8FDC5"/>
</svg>
