<svg width="41" height="40" viewBox="0 0 41 40" fill="none" xmlns="http://www.w3.org/2000/svg">
<path d="M35.0798 40H34.0635C33.9932 39.9701 33.921 39.9447 33.8475 39.9238C32.7091 39.6619 31.8754 39.0098 31.385 37.9507C31.2691 37.7034 31.1314 37.6491 30.8841 37.6512C29.296 37.6616 27.7068 37.6574 26.1187 37.6512C25.2317 37.6512 24.7695 37.191 24.7684 36.3072C24.7684 34.4714 24.7684 32.636 24.7684 30.8009V30.4013H21.1727V30.8458C21.1727 33.3709 21.155 35.8961 21.1842 38.4213C21.1925 39.1517 20.989 39.6838 20.3129 39.9958H19.6868C19.0107 39.6828 18.8082 39.1475 18.8166 38.4223C18.8458 35.8836 18.8281 33.3449 18.8281 30.8051V30.3971H15.2344V30.8374C15.2344 32.6607 15.2344 34.4833 15.2344 36.3051C15.2344 37.1879 14.7711 37.6481 13.8852 37.6491C12.32 37.6491 10.7549 37.6564 9.19804 37.6439C8.89439 37.6439 8.72535 37.7044 8.58136 38.0133C8.13371 38.9722 7.36573 39.5784 6.34524 39.8706C6.20959 39.9092 6.07498 39.952 5.93933 39.9937H4.92197C4.85402 39.9638 4.78433 39.938 4.71328 39.9165C3.0594 39.5409 1.92413 38.1322 1.93247 36.4637C1.93279 35.6626 2.20772 34.8857 2.71143 34.2627C3.21514 33.6397 3.91719 33.2082 4.70052 33.0402C5.48385 32.8721 6.30112 32.9776 7.01606 33.3392C7.73101 33.7007 8.30042 34.2964 8.62935 35.0269C8.7337 35.2586 8.86309 35.3139 9.09891 35.3118C10.2467 35.3003 11.3945 35.3118 12.536 35.3055C12.6477 35.3055 12.7593 35.2909 12.8637 35.2836V30.3794C12.223 30.3794 11.6115 30.346 11.0011 30.3877C10.0495 30.4524 9.37855 29.9536 9.44846 28.834C9.49333 28.113 9.45681 27.3867 9.45681 26.6428C8.01372 26.6428 6.62279 26.6428 5.23187 26.6428C4.44198 26.6428 3.90877 26.1638 3.91086 25.4668C3.91295 24.7698 4.4472 24.3013 5.24022 24.3002C6.5028 24.3002 7.76572 24.3002 9.029 24.3002H9.43699V21.1699H8.99456C6.52054 21.1699 4.04755 21.1521 1.57457 21.1813C0.844153 21.1897 0.311992 20.9862 0 20.3111V19.685C0.313036 19.0089 0.847284 18.8054 1.57353 18.8148C4.04755 18.844 6.52158 18.8252 8.99561 18.8252H9.42968V15.7063C8.0158 15.7063 6.62488 15.7063 5.235 15.7063C4.44198 15.7063 3.90877 15.2326 3.90773 14.5366C3.90669 13.8406 4.44093 13.3659 5.23187 13.3648C6.49445 13.3648 7.75737 13.3648 9.02065 13.3648H9.45368C9.45368 12.5572 9.45368 11.7996 9.45368 11.0494C9.45368 10.0613 9.89089 9.62613 10.8843 9.62509H12.8668V4.69582C11.6042 4.69582 10.3688 4.70208 9.13334 4.68956C8.8683 4.68956 8.73161 4.75738 8.61162 5.01303C7.99493 6.261 6.97235 6.95594 5.58352 7.02481C4.94751 7.05317 4.31577 6.90802 3.75592 6.60491C3.19607 6.3018 2.7292 5.85214 2.40528 5.30407C2.08137 4.75599 1.91261 4.13014 1.91707 3.49352C1.92153 2.8569 2.09904 2.23348 2.4306 1.69C2.76217 1.14652 3.23529 0.703442 3.79934 0.408206C4.36338 0.112971 4.99709 -0.0233081 5.63264 0.0139597C6.26818 0.0512274 6.88162 0.260639 7.40729 0.619774C7.93296 0.978909 8.35106 1.47425 8.61683 2.05275C8.73161 2.30005 8.86831 2.35536 9.11665 2.35431C10.7048 2.34388 12.294 2.34805 13.8821 2.35431C14.7701 2.35431 15.2323 2.81343 15.2323 3.69828C15.2323 5.53336 15.2323 7.3688 15.2323 9.20458V9.60005H18.8281V9.15554C18.8281 6.53856 18.8281 3.92193 18.8281 1.30564C18.8281 0.757829 19.0368 0.337317 19.5366 0.108801C20.3379 -0.256407 21.1717 0.341491 21.1727 1.27956C21.1783 3.91045 21.1783 6.5403 21.1727 9.1691V9.60005H24.7684V9.14719C24.7684 7.32463 24.7684 5.50206 24.7684 3.6795C24.7684 2.8176 25.2359 2.35014 26.0936 2.34909C27.6953 2.34909 29.297 2.34179 30.8987 2.35536C31.1596 2.35536 31.2785 2.27605 31.3891 2.04232C31.7286 1.31565 32.3071 0.727424 33.028 0.375884C33.7489 0.0243434 34.5686 -0.0692355 35.3502 0.110774C36.1318 0.290784 36.8279 0.733485 37.3224 1.36495C37.8169 1.99642 38.0798 2.77842 38.0672 3.58037C38.0578 4.3716 37.7806 5.13629 37.2809 5.74982C36.7812 6.36336 36.0884 6.78957 35.3154 6.95899C34.5425 7.12841 33.735 7.03106 33.0245 6.68281C32.3139 6.33455 31.7423 5.75592 31.4027 5.0412C31.2796 4.78138 31.1492 4.68434 30.8549 4.6906C29.7488 4.71147 28.6417 4.69895 27.5346 4.69895H27.1298V9.60527C27.2738 9.61153 27.4 9.62196 27.5273 9.62196C28.0741 9.62196 28.6209 9.62196 29.1676 9.62196C30.0838 9.62196 30.5433 10.0741 30.546 10.9784C30.546 11.4344 30.546 11.8894 30.546 12.3454V13.3586C32.0225 13.3586 33.4406 13.3586 34.8597 13.3586C35.5786 13.3586 36.1014 13.873 36.0909 14.5429C36.0805 15.2128 35.5692 15.6907 34.868 15.698C33.8913 15.7053 32.9147 15.698 31.938 15.698H30.5732V18.8221H31.0208C33.5856 18.8221 36.1504 18.8221 38.7152 18.8221C39.2463 18.8221 39.6543 19.0214 39.887 19.5076C40.2658 20.3059 39.6783 21.1625 38.7507 21.1646C36.1598 21.1709 33.5679 21.1646 30.977 21.1646H30.5732V24.295H34.7616C35.5609 24.295 36.092 24.7593 36.0982 25.4553C36.1045 26.1513 35.5671 26.6365 34.7418 26.6375C33.4896 26.6375 32.2399 26.6375 30.9926 26.6375H30.5502C30.5502 27.4514 30.5502 28.2173 30.5502 28.9832C30.5502 29.9223 30.0984 30.3752 29.1666 30.3773C28.4946 30.3773 27.8216 30.3773 27.1381 30.3773V35.3086C28.3704 35.3086 29.5798 35.2961 30.7902 35.317C31.1178 35.3232 31.2827 35.2398 31.4309 34.9267C32.1216 33.4763 33.7046 32.724 35.3042 33.0485C36.7932 33.348 37.9712 34.6909 38.0641 36.1956C38.1685 37.8651 37.2106 39.3124 35.6725 39.8205C35.4774 39.8852 35.276 39.9405 35.0798 40ZM28.1837 28.018V11.9937H11.8254V28.018H28.1837ZM35.7278 3.51254C35.7264 3.20323 35.6024 2.90711 35.3829 2.68917C35.1634 2.47124 34.8664 2.34931 34.5571 2.35014C34.246 2.35221 33.9485 2.47777 33.73 2.69919C33.5116 2.92061 33.39 3.21975 33.3921 3.5308C33.3941 3.84186 33.5197 4.13935 33.7411 4.35784C33.9625 4.57632 34.2617 4.6979 34.5727 4.69582C34.8828 4.69197 35.1786 4.56517 35.3952 4.34329C35.6118 4.1214 35.7314 3.8226 35.7278 3.51254ZM34.5592 35.3139C34.2486 35.3152 33.9514 35.4399 33.7328 35.6604C33.5143 35.881 33.3922 36.1793 33.3936 36.4898C33.395 36.8003 33.5197 37.0976 33.7402 37.3161C33.9608 37.5347 34.2591 37.6567 34.5696 37.6554C34.8801 37.654 35.1773 37.5293 35.3959 37.3088C35.6145 37.0882 35.7365 36.7899 35.7351 36.4794C35.7337 36.1689 35.6091 35.8717 35.3885 35.6531C35.168 35.4345 34.8697 35.3125 34.5592 35.3139ZM5.44369 4.69582C5.75475 4.69347 6.05213 4.56765 6.27042 4.34603C6.48871 4.12442 6.61002 3.82517 6.60766 3.51411C6.60531 3.20305 6.47949 2.90567 6.25788 2.68738C6.03626 2.4691 5.73701 2.34779 5.42595 2.35014C5.1149 2.35249 4.81751 2.47831 4.59923 2.69993C4.38094 2.92154 4.25963 3.22079 4.26198 3.53185C4.26434 3.84291 4.39016 4.14029 4.61177 4.35857C4.83338 4.57686 5.13264 4.69817 5.44369 4.69582ZM6.60714 36.4815C6.60253 36.1722 6.47717 35.8769 6.25785 35.6587C6.03852 35.4406 5.74259 35.3168 5.43326 35.3139C5.12276 35.3147 4.8253 35.4388 4.60633 35.659C4.38736 35.8791 4.2648 36.1772 4.26563 36.4877C4.26647 36.7982 4.39061 37.0957 4.61075 37.3147C4.8309 37.5336 5.12902 37.6562 5.43952 37.6554C5.74875 37.6505 6.04385 37.525 6.26196 37.3058C6.48006 37.0865 6.60392 36.7907 6.60714 36.4815ZM18.8291 21.8293H16.4866C16.4866 22.6004 16.497 23.3507 16.4866 24.1009C16.4719 24.9482 15.6935 25.5023 14.9266 25.2289C14.7035 25.1513 14.5096 25.0071 14.371 24.8159C14.2323 24.6246 14.1557 24.3955 14.1513 24.1593C14.144 22.1037 14.1117 20.0481 14.1649 17.9946C14.2129 16.1686 15.8344 14.6952 17.673 14.7025C19.5115 14.7098 21.1164 16.1842 21.1602 18.0155C21.2103 20.0554 21.1831 22.0985 21.1727 24.1406C21.1699 24.4502 21.0443 24.7461 20.8233 24.9631C20.6024 25.1802 20.3043 25.3005 19.9946 25.2978C19.685 25.295 19.3891 25.1693 19.1721 24.9484C18.955 24.7275 18.8347 24.4294 18.8375 24.1197C18.8197 23.3674 18.8291 22.615 18.8291 21.8293ZM18.8291 19.4492V18.3567C18.8291 18.2795 18.8291 18.2002 18.8291 18.123C18.7996 17.8353 18.6673 17.5679 18.4564 17.3701C18.2455 17.1722 17.9703 17.0572 17.6813 17.0461C17.1189 17.0326 16.569 17.4635 16.5106 18.0437C16.4646 18.5028 16.5012 18.9703 16.5012 19.4492H18.8291ZM23.5173 23.982C23.5173 24.7614 24.0109 25.3092 24.6964 25.3019C25.382 25.2946 25.8588 24.7583 25.8599 24.0039C25.8599 21.3368 25.8599 18.6697 25.8599 16.0027C25.8599 15.2472 25.3747 14.7109 24.6996 14.7025C24.0245 14.6942 23.5184 15.242 23.5173 16.0194C23.5173 17.3334 23.5173 18.6475 23.5173 19.9615C23.5166 21.3013 23.5166 22.6415 23.5173 23.982Z" fill="#C8FDC5"/>
</svg>
