<svg width="41" height="35" viewBox="0 0 41 35" fill="none" xmlns="http://www.w3.org/2000/svg">
<path d="M40.5327 11.602C40.4437 12.081 40.3744 12.564 40.2638 13.0378C39.8252 14.9246 38.8983 16.5548 37.6405 18.0143C37.4895 18.1892 37.3302 18.3598 37.1574 18.5605C38.438 19.747 39.0256 21.1683 38.4535 22.8771C37.8815 24.5859 36.6226 25.429 34.8331 25.5883C34.7793 26.6227 34.4193 27.5392 33.6715 28.2777C32.9473 29.0076 31.9636 29.4208 30.9355 29.427C30.7462 31.2082 29.8762 32.5012 28.1353 33.034C26.3944 33.5667 24.9535 32.9202 23.7618 31.5444C22.9529 32.3637 22.1833 33.1788 21.3755 33.9556C20.728 34.5688 19.886 34.9356 18.9961 34.9923C18.1062 35.049 17.2245 34.792 16.5044 34.2659C16.0678 33.9522 15.7045 33.5474 15.4396 33.0794C15.1747 32.6115 15.0146 32.0916 14.9704 31.5558C14.9621 31.4668 14.9445 31.3789 14.9259 31.2599C13.9277 31.1927 13.0412 30.8576 12.3223 30.1438C11.6034 29.4301 11.2538 28.5808 11.1845 27.5816C9.79525 27.4781 8.71843 26.8782 8.06158 25.6545C7.40473 24.4308 7.49265 23.2267 8.20743 21.9306C8.09311 21.869 7.98473 21.797 7.88366 21.7155C6.64237 20.5486 5.3897 19.3953 4.17324 18.2036C1.21069 15.3094 0.180418 11.8069 1.3193 7.84196C2.44784 3.91845 5.15592 1.47001 9.15495 0.648685C12.555 -0.0474725 15.5921 0.866945 18.1709 3.21195C18.8463 3.82742 19.4856 4.4791 20.2097 5.17215C20.429 4.93424 20.6317 4.70564 20.8438 4.48634C21.8958 3.40228 22.9715 2.34718 24.2821 1.5631C29.0766 -1.30531 34.8983 -0.143672 38.3118 4.37256C39.5045 5.94693 40.2493 7.70646 40.4655 9.67907C40.4805 9.75389 40.5019 9.82726 40.5296 9.89837L40.5327 11.602ZM28.9328 18.4488C29.45 17.073 30.3469 16.1327 31.7702 15.8079C33.1936 15.4831 34.4452 15.871 35.5003 16.9003C35.6037 16.803 35.6917 16.7286 35.7693 16.6458C37.6602 14.6422 38.436 12.2703 38.0636 9.5446C37.3995 4.68288 32.5688 1.44621 27.7898 2.57579C25.2245 3.18299 23.5756 4.99217 21.8285 6.82411C21.936 6.90166 22.0396 6.98452 22.1388 7.07236C23.2932 8.18435 24.4508 9.2891 25.5886 10.4176C26.6799 11.5058 27.044 12.8371 26.7109 14.3256C26.3634 15.8773 25.3941 16.9179 23.8736 17.3616C22.3219 17.8147 20.912 17.4754 19.7359 16.3376C19.2828 15.9 18.8494 15.4428 18.3912 14.9752C18.2443 15.1025 18.1409 15.1976 18.0374 15.2959L11.6044 21.7289C11.1669 22.1665 10.7159 22.5926 10.2949 23.0467C10.1353 23.213 10.0233 23.4191 9.97048 23.6435C9.91769 23.8678 9.92608 24.1022 9.99476 24.3222C10.0634 24.5422 10.1899 24.7397 10.361 24.8942C10.532 25.0487 10.7414 25.1544 10.9672 25.2004C11.4617 25.3111 11.8796 25.1466 12.2323 24.7866C12.9605 24.0543 13.6905 23.3243 14.4222 22.5968C14.7459 22.274 15.1287 22.122 15.5838 22.2461C16.4775 22.4913 16.7485 23.5267 16.0865 24.2115C15.4048 24.9169 14.6983 25.5976 14.0094 26.2958C13.3609 26.9527 13.336 27.8609 13.9401 28.4681C14.5442 29.0753 15.4628 29.0515 16.1124 28.406C16.7827 27.743 17.4437 27.0727 18.1129 26.4096C18.6643 25.8634 19.379 25.8314 19.86 26.3248C20.341 26.8182 20.2914 27.5081 19.7566 28.046C19.0946 28.7153 18.4233 29.3763 17.7612 30.0466C17.0992 30.7169 17.0858 31.6085 17.6888 32.2188C18.2919 32.8291 19.2146 32.8002 19.8611 32.1578C20.5779 31.4513 21.2824 30.7324 22.0002 30.0269C22.1585 29.8718 22.1968 29.7518 22.1037 29.5294C21.2493 27.5516 22.0737 25.3659 24.0111 24.4328C24.098 24.3904 24.1787 24.3366 24.2552 24.2922C23.346 22.7592 23.2746 21.2282 24.3204 19.8028C25.4769 18.2523 27.0657 17.8623 28.9328 18.4488ZM9.76215 20.3221C9.90076 20.17 9.99179 20.0614 10.0911 19.9611C12.2613 17.7895 14.4335 15.6193 16.6079 13.4505C17.634 12.4306 19.0977 12.4399 20.1249 13.4557C20.521 13.8446 20.9079 14.2418 21.303 14.6308C22.1068 15.4211 23.2457 15.4345 23.9977 14.667C24.7218 13.9264 24.6814 12.7875 23.8818 12.0065C21.4727 9.65528 19.0739 7.29373 16.641 4.97251C14.8163 3.2316 12.6068 2.48993 10.1107 2.84887C7.00958 3.28643 4.82491 5.00458 3.73051 7.92265C2.6361 10.8407 3.13055 13.5809 5.1973 15.8969C6.59272 17.4599 8.21053 18.8263 9.76215 20.3221ZM30.8641 27.1895L30.9127 27.0933C31.2108 27.0934 31.5026 27.0075 31.7531 26.8461C32.0037 26.6847 32.2025 26.4545 32.3257 26.1831C32.5905 25.5862 32.544 24.9935 32.093 24.528C30.8999 23.2957 29.6876 22.0847 28.456 20.8952C27.8488 20.3107 26.9323 20.3914 26.3354 20.9986C26.0519 21.2782 25.89 21.6583 25.885 22.0565C25.8799 22.4546 26.0321 22.8387 26.3085 23.1254C27.4805 24.3211 28.6598 25.5107 29.869 26.6682C30.1276 26.9185 30.5269 27.0209 30.8641 27.1895ZM32.876 18.0081C31.9988 18.0412 31.5199 18.3536 31.251 18.9391C30.9717 19.5463 31.0586 20.138 31.5209 20.6221C32.2326 21.3675 32.9615 22.0968 33.7077 22.8099C33.8505 22.9506 34.0197 23.0617 34.2056 23.1368C34.3915 23.212 34.5904 23.2497 34.7909 23.2477C34.9913 23.2458 35.1895 23.2043 35.3739 23.1256C35.5583 23.0469 35.7253 22.9326 35.8655 22.7892C36.0151 22.6504 36.1351 22.4828 36.2181 22.2963C36.301 22.1099 36.3453 21.9086 36.3482 21.7045C36.3511 21.5005 36.3126 21.2979 36.2349 21.1092C36.1573 20.9205 36.0421 20.7495 35.8965 20.6066C35.19 19.8732 34.4814 19.1398 33.7294 18.455C33.4501 18.2057 33.0467 18.0961 32.8729 18.0081H32.876ZM26.8185 30.9062C27.6719 30.8627 28.156 30.5534 28.4249 29.968C28.6939 29.3825 28.6194 28.797 28.1757 28.3129C27.6957 27.7957 27.193 27.2909 26.6747 26.8078C26.0541 26.2338 25.1552 26.2772 24.549 26.8792C24.2672 27.1509 24.1009 27.5208 24.0849 27.9119C24.069 28.3031 24.2044 28.6853 24.4632 28.9791C24.9445 29.518 25.4586 30.0269 26.0024 30.5028C26.2672 30.7303 26.6468 30.8255 26.8185 30.9062Z" fill="#C8FDC5"/>
</svg>
