<svg width="38" height="39" viewBox="0 0 38 39" fill="none" xmlns="http://www.w3.org/2000/svg">
<path d="M18.5238 38.9169C17.9767 38.6789 17.3656 38.5293 16.8933 38.1886C14.5886 36.5284 14.9861 33.0277 17.59 31.8993C17.8685 31.7785 17.9506 31.6451 17.9379 31.3585C17.9154 30.8564 17.9316 30.3517 17.9316 29.847H20.1534C20.1534 30.3724 20.1606 30.9213 20.1489 31.4693C20.1489 31.6667 20.1957 31.7686 20.394 31.8515C21.9866 32.5176 22.8375 33.9615 22.6753 35.6902C22.531 37.2341 21.3296 38.5032 19.6874 38.8511C19.6427 38.867 19.6 38.8882 19.5603 38.9142L18.5238 38.9169ZM19.0249 36.6979C19.3106 36.702 19.5911 36.6211 19.8307 36.4656C20.0704 36.31 20.2584 36.0868 20.371 35.8242C20.4836 35.5616 20.5157 35.2715 20.4631 34.9906C20.4106 34.7098 20.2758 34.4509 20.0758 34.2468C19.8759 34.0427 19.6199 33.9026 19.3402 33.8442C19.0605 33.7858 18.7698 33.8119 18.5049 33.919C18.24 34.0261 18.013 34.2095 17.8525 34.4459C17.692 34.6823 17.6054 34.961 17.6035 35.2467C17.6011 35.6272 17.7492 35.9932 18.0154 36.265C18.2816 36.5368 18.6445 36.6924 19.0249 36.6979Z" fill="#C8FDC5"/>
<path d="M0.0828857 19.4421C0.305511 18.914 0.443412 18.3317 0.765181 17.8693C1.58988 16.6715 2.78683 16.1568 4.22894 16.3371C5.59713 16.5111 6.56514 17.2781 7.11314 18.5399C7.22401 18.795 7.35109 18.8599 7.60256 18.8527C8.11811 18.8374 8.63366 18.8482 9.15192 18.8482V21.069C8.62645 21.069 8.07845 21.0771 7.52955 21.069C7.33307 21.0645 7.23122 21.115 7.14649 21.3124C6.45158 22.9347 5.00947 23.773 3.27084 23.5918C1.74491 23.4323 0.495688 22.2398 0.145076 20.6075C0.130021 20.5621 0.109116 20.5187 0.0828857 20.4787V19.4421ZM5.19154 19.9757C5.19564 19.69 5.11475 19.4094 4.95913 19.1697C4.8035 18.93 4.58016 18.742 4.31747 18.6294C4.05477 18.5169 3.76455 18.4849 3.48366 18.5376C3.20277 18.5903 2.94388 18.7253 2.73984 18.9254C2.53579 19.1255 2.39581 19.3817 2.33765 19.6615C2.2795 19.9414 2.30579 20.2321 2.4132 20.497C2.5206 20.7618 2.70428 20.9888 2.9409 21.149C3.17753 21.3093 3.45644 21.3956 3.74223 21.3971C4.12238 21.399 4.48792 21.2508 4.75933 20.9846C5.03075 20.7184 5.18608 20.3558 5.19154 19.9757Z" fill="#C8FDC5"/>
<path d="M26.7384 19.9559C26.7384 24.1921 23.2701 27.6586 19.0366 27.655C14.8032 27.6514 11.3394 24.1804 11.3466 19.946C11.3538 15.726 14.8077 12.2731 19.0285 12.2659C21.0691 12.2683 23.0258 13.0786 24.4706 14.5197C25.9154 15.9607 26.7308 17.9153 26.7384 19.9559ZM19.0303 14.4867C17.9474 14.4892 16.8895 14.8129 15.9905 15.4169C15.0916 16.0208 14.392 16.8778 13.9803 17.8795C13.5686 18.8812 13.4632 19.9824 13.6776 21.044C13.892 22.1055 14.4165 23.0796 15.1846 23.843C15.9528 24.6064 16.9302 25.1247 17.993 25.3325C19.0559 25.5402 20.1565 25.428 21.1556 25.01C22.1546 24.592 23.0073 23.8871 23.6056 22.9844C24.2038 22.0817 24.5209 21.0218 24.5166 19.9388C24.5057 18.4903 23.9231 17.1047 22.8956 16.0836C21.8681 15.0625 20.4789 14.4886 19.0303 14.4867Z" fill="#C8FDC5"/>
<path d="M11.471 10.8941C11.9271 11.324 12.384 11.753 12.7743 12.1199L11.1691 13.7071C10.877 13.4015 10.5012 13.0284 10.1506 12.6336C9.98293 12.4452 9.84863 12.438 9.617 12.5318C8.7222 12.8987 7.71867 12.8974 6.82485 12.528C5.93104 12.1587 5.21929 11.4512 4.84453 10.5597C4.07571 8.72099 4.92295 6.57045 6.76524 5.80073C8.21996 5.19415 9.59266 5.41136 10.7409 6.49925C11.8892 7.58714 12.1434 8.91387 11.6693 10.3992C11.6242 10.5398 11.5602 10.6732 11.471 10.8941ZM8.22627 10.584C8.51094 10.584 8.78921 10.4995 9.02579 10.3412C9.26237 10.1828 9.44663 9.95783 9.55519 9.69467C9.66376 9.43151 9.69175 9.14204 9.63562 8.86295C9.57949 8.58387 9.44176 8.32773 9.2399 8.12701C9.03804 7.92628 8.78112 7.79001 8.50172 7.73546C8.22232 7.68091 7.93302 7.71053 7.67048 7.82059C7.40794 7.93064 7.18398 8.11616 7.027 8.35364C6.87001 8.59112 6.78706 8.86986 6.78867 9.15452C6.78758 9.34316 6.82405 9.53012 6.89596 9.70452C6.96786 9.87892 7.07377 10.0373 7.20749 10.1703C7.34121 10.3034 7.50008 10.4085 7.67484 10.4795C7.84959 10.5505 8.03674 10.586 8.22537 10.584H8.22627Z" fill="#C8FDC5"/>
<path d="M28.1228 12.3921L26.8844 13.6738L25.326 12.1181L26.6158 10.895C26.1165 9.80801 26.0462 8.75708 26.4914 7.69803C26.8105 6.93834 27.3841 6.31342 28.1138 5.93055C28.8405 5.53552 29.6796 5.39822 30.4944 5.54104C31.3091 5.68385 32.0515 6.09836 32.6005 6.71702C33.1496 7.33569 33.473 8.12205 33.518 8.94799C33.563 9.77393 33.327 10.5908 32.8484 11.2654C31.9047 12.6003 30.0336 13.2844 28.1228 12.3921ZM29.8714 10.584C30.1562 10.5811 30.4337 10.4937 30.6687 10.3328C30.9037 10.172 31.0857 9.94489 31.1915 9.68045C31.2972 9.416 31.3221 9.1261 31.2629 8.84751C31.2036 8.56892 31.063 8.31421 30.8587 8.11569C30.6545 7.91717 30.3959 7.78378 30.1158 7.73246C29.8356 7.68113 29.5465 7.71418 29.2852 7.82741C29.0238 7.94064 28.802 8.12894 28.6479 8.36844C28.4937 8.60793 28.4142 8.88781 28.4193 9.17258C28.4213 9.3608 28.4605 9.54676 28.5347 9.71976C28.6089 9.89275 28.7166 10.0494 28.8515 10.1806C28.9865 10.3118 29.1461 10.415 29.3211 10.4842C29.4962 10.5535 29.6832 10.5874 29.8714 10.584Z" fill="#C8FDC5"/>
<path d="M12.7518 27.7811L11.4647 29.0366C11.7762 29.6587 11.9177 30.3522 11.8748 31.0466C11.8085 31.9981 11.3711 32.8856 10.6568 33.5178C9.94252 34.15 9.00849 34.4763 8.05592 34.4265C6.03968 34.3165 4.49302 32.6419 4.57324 30.659C4.58984 30.0652 4.75113 29.4845 5.04311 28.9672C5.33509 28.4499 5.74893 28.0117 6.24869 27.6906C6.74845 27.3696 7.31904 27.1753 7.91089 27.1248C8.50275 27.0743 9.09799 27.169 9.64494 27.4008C9.87387 27.4909 9.99375 27.4539 10.1443 27.289C10.5048 26.8987 10.8734 26.5238 11.1745 26.2074L12.7518 27.7811ZM9.66386 30.7555C9.66147 30.4694 9.57407 30.1905 9.41276 29.9543C9.25146 29.7181 9.02355 29.5352 8.75801 29.4288C8.49247 29.3224 8.2013 29.2975 7.92152 29.357C7.64174 29.4166 7.38599 29.558 7.18681 29.7633C6.98762 29.9686 6.85398 30.2285 6.80289 30.51C6.7518 30.7914 6.78557 31.0817 6.8999 31.3439C7.01423 31.6061 7.20395 31.8284 7.44495 31.9825C7.68595 32.1366 7.96733 32.2155 8.25331 32.2093C8.44167 32.2076 8.62783 32.1686 8.801 32.0945C8.97417 32.0204 9.1309 31.9126 9.26211 31.7775C9.39332 31.6423 9.4964 31.4825 9.56536 31.3072C9.63433 31.1319 9.66781 30.9447 9.66386 30.7564V30.7555Z" fill="#C8FDC5"/>
<path d="M25.2927 27.8208L26.8916 26.2209C27.1981 26.531 27.5811 26.9113 27.9534 27.3025C28.0931 27.4485 28.1994 27.5017 28.4211 27.4143C29.8119 26.8645 31.1251 27.033 32.2562 28.0199C33.3874 29.0069 33.7677 30.2949 33.3802 31.7361C32.9926 33.1773 32.0201 34.0714 30.5609 34.3544C29.1701 34.6248 27.9615 34.2048 27.0457 33.1106C26.13 32.0164 25.9642 30.7365 26.4671 29.3981C26.5572 29.1493 26.5446 29.0087 26.3526 28.8356C25.9714 28.4958 25.6072 28.1236 25.2927 27.8208ZM29.8515 29.3359C29.5668 29.3368 29.2887 29.4222 29.0526 29.5814C28.8165 29.7405 28.6329 29.9662 28.5253 30.2298C28.4176 30.4934 28.3906 30.7831 28.4478 31.062C28.5049 31.341 28.6436 31.5967 28.8463 31.7967C29.049 31.9967 29.3065 32.132 29.5862 32.1855C29.8659 32.239 30.1551 32.2082 30.4173 32.097C30.6794 31.9859 30.9027 31.7994 31.0587 31.5612C31.2147 31.323 31.2965 31.0438 31.2936 30.759C31.2936 30.5705 31.2562 30.3839 31.1835 30.21C31.1108 30.0361 31.0043 29.8784 30.8701 29.746C30.736 29.6136 30.5768 29.5091 30.402 29.4387C30.2271 29.3683 30.04 29.3334 29.8515 29.3359Z" fill="#C8FDC5"/>
<path d="M20.1534 10.0721H17.9289C17.9289 9.56554 17.9136 9.03917 17.9352 8.51371C17.9452 8.25142 17.8568 8.13696 17.6126 8.0324C15.983 7.33569 15.0844 5.61057 15.4494 3.93232C15.5748 3.31449 15.8576 2.73948 16.2703 2.26293C16.683 1.78639 17.2118 1.42443 17.8054 1.21208C18.399 0.999739 19.0373 0.944192 19.6587 1.05082C20.28 1.15744 20.8633 1.42263 21.3522 1.82073C21.841 2.21883 22.2188 2.73635 22.4491 3.32324C22.6793 3.91012 22.7542 4.5465 22.6664 5.17079C22.5787 5.79509 22.3313 6.38618 21.9482 6.88686C21.5651 7.38754 21.0593 7.78087 20.4796 8.0288C20.2183 8.13876 20.1335 8.26404 20.1462 8.53984C20.1705 9.05269 20.1534 9.56824 20.1534 10.0721ZM20.4815 4.6687C20.4814 4.38294 20.3965 4.10363 20.2375 3.86621C20.0785 3.62879 19.8525 3.44397 19.5883 3.3352C19.324 3.22643 19.0334 3.19862 18.7533 3.25529C18.4733 3.31197 18.2163 3.45057 18.0152 3.65352C17.814 3.85647 17.6776 4.1146 17.6234 4.39517C17.5692 4.67574 17.5996 4.96608 17.7107 5.22936C17.8218 5.49264 18.0086 5.71699 18.2474 5.87392C18.4862 6.03085 18.7662 6.1133 19.052 6.1108C19.4322 6.10747 19.7958 5.95407 20.0635 5.68398C20.3313 5.41389 20.4815 5.04899 20.4815 4.6687Z" fill="#C8FDC5"/>
<path d="M28.9322 21.0708V18.8518C29.4333 18.8518 29.957 18.8419 30.4806 18.8518C30.7276 18.859 30.861 18.8022 30.9692 18.5426C31.6469 16.9158 33.3847 16.0054 35.062 16.3678C36.8196 16.7481 38.0292 18.2605 37.9994 20.0334C37.9798 20.8721 37.6742 21.679 37.1333 22.3203C36.5923 22.9615 35.8485 23.3987 35.0251 23.5594C34.2068 23.7169 33.3592 23.5889 32.6238 23.1969C31.8884 22.8048 31.3098 22.1724 30.9845 21.4052C30.8646 21.1213 30.7204 21.0519 30.4437 21.0636C29.9371 21.0862 29.4333 21.0708 28.9322 21.0708ZM35.7822 19.9478C35.7807 19.662 35.6944 19.3831 35.5341 19.1465C35.3739 18.9098 35.1469 18.7262 34.8821 18.6188C34.6172 18.5114 34.3264 18.4851 34.0466 18.5432C33.7668 18.6014 33.5106 18.7414 33.3105 18.9454C33.1104 19.1494 32.9754 19.4083 32.9227 19.6892C32.87 19.9701 32.902 20.2603 33.0145 20.523C33.127 20.7857 33.3151 21.0091 33.5548 21.1647C33.7945 21.3203 34.075 21.4012 34.3608 21.3971C34.7397 21.3898 35.1004 21.2336 35.365 20.9624C35.6297 20.6912 35.7769 20.3267 35.775 19.9478H35.7822Z" fill="#C8FDC5"/>
</svg>
