<svg width="39" height="31" viewBox="0 0 39 31" fill="none" xmlns="http://www.w3.org/2000/svg">
<path d="M38.4042 28.059C38.2652 28.7186 38.0529 29.3397 37.591 29.8584C37.0442 30.4912 36.2746 30.8893 35.4421 30.9698C35.236 30.9887 35.0289 30.9967 34.8219 30.9936C24.7435 30.9936 14.6651 30.9957 4.58668 31C3.40479 31 2.41774 30.6341 1.68134 29.6846C1.2333 29.0998 0.996911 28.3803 1.01081 27.6437C0.999834 25.6961 0.987942 23.7486 1.01447 21.801C1.05381 18.9085 3.26483 16.5575 6.15735 16.4111C7.6767 16.3364 9.19915 16.3523 10.7166 16.4587C11.3515 16.5008 11.6808 16.4194 12.0632 15.8632C13.0841 14.3812 14.5669 13.6146 16.3754 13.5936C18.6624 13.568 20.9493 13.5433 23.2363 13.6119C25.1317 13.6695 26.5871 14.6017 27.5897 16.2071C27.7653 16.4889 27.9181 16.6069 28.2456 16.5026C28.4555 16.4392 28.674 16.4083 28.8932 16.4111C30.474 16.4111 32.0639 16.3261 33.6336 16.4605C36.0121 16.6645 37.9651 18.6304 38.3274 20.9859C38.3469 21.0786 38.3714 21.1702 38.4005 21.2604L38.4042 28.059ZM26.2212 28.7853V28.3783C26.2212 25.3485 26.2212 22.3194 26.2212 19.2908C26.2212 17.1484 24.849 15.7772 22.7139 15.7726C20.7069 15.769 18.6999 15.7705 16.6929 15.7772C16.3403 15.7686 15.9882 15.8061 15.6454 15.8888C14.1049 16.3169 13.1993 17.5354 13.1947 19.1893C13.1865 22.2913 13.1947 25.3933 13.1947 28.4953C13.1947 28.5868 13.2103 28.6783 13.2194 28.7853H26.2212ZM11.0002 28.7853V19.4253C11.0002 18.602 11.0002 18.5837 10.143 18.5746C8.95383 18.5618 7.75913 18.5645 6.56717 18.5746C6.27579 18.5746 5.98559 18.6118 5.70362 18.6853C4.13661 19.1152 3.20811 20.3401 3.20079 21.9867C3.19256 23.8227 3.20079 25.6595 3.20079 27.4964C3.20079 28.4011 3.60329 28.8 4.51807 28.8009C6.54888 28.8009 8.57999 28.8009 10.6114 28.8009C10.7276 28.8027 10.8456 28.7917 11.0002 28.7835V28.7853ZM28.4121 28.7597C28.4594 28.778 28.5084 28.7914 28.5584 28.8C30.7594 28.8 32.9613 28.8091 35.1622 28.7954C35.7815 28.7908 36.2078 28.3188 36.2096 27.6711C36.217 25.7373 36.2252 23.8025 36.2096 21.8696C36.1941 20.1132 34.8741 18.7182 33.2339 18.6194C32.2404 18.5599 31.2415 18.5764 30.2453 18.5764C29.7358 18.5764 29.2262 18.6167 28.7158 18.6313C28.4624 18.6377 28.4057 18.7584 28.4066 18.9972C28.4157 22.0995 28.4182 25.2009 28.4139 28.3014L28.4121 28.7597ZM19.7217 6.49619e-06C21.4444 0.00581867 23.0945 0.694549 24.3101 1.91517C25.5258 3.1358 26.2078 4.78869 26.2065 6.5114C26.1974 10.0854 23.25 13.021 19.6906 13.0063C16.1092 12.9871 13.1957 10.0543 13.2057 6.48395C13.2118 4.76062 13.9012 3.11007 15.1228 1.89448C16.3444 0.6789 17.9983 -0.00242695 19.7217 6.49619e-06ZM19.6942 2.19547C18.8417 2.19747 18.0089 2.45224 17.3011 2.92757C16.5933 3.4029 16.0424 4.07744 15.7181 4.86588C15.3937 5.65433 15.3104 6.52125 15.4787 7.35703C15.6471 8.1928 16.0595 8.95989 16.6638 9.56126C17.2681 10.1626 18.0372 10.5713 18.8738 10.7356C19.7104 10.8998 20.5769 10.8123 21.3638 10.4841C22.1506 10.1559 22.8225 9.60168 23.2943 8.89161C23.7662 8.18154 24.0169 7.34749 24.0147 6.49493C24.0139 5.92878 23.9014 5.36836 23.6837 4.84573C23.4661 4.3231 23.1474 3.84853 22.7461 3.44918C22.3448 3.04983 21.8687 2.73355 21.345 2.51842C20.8214 2.30329 20.2604 2.19355 19.6942 2.19547ZM3.44778 10.9124C3.43497 8.25313 5.60574 6.07139 8.29153 6.04303C10.9609 6.01559 13.1819 8.21746 13.1883 10.8987C13.1947 13.5579 11.0148 15.7516 8.34001 15.7754C5.6652 15.7991 3.45967 13.6009 3.44778 10.9124ZM8.36471 8.24033C6.91205 8.1955 5.70728 9.35544 5.64599 10.8575C5.58745 12.2836 6.77849 13.5213 8.26866 13.5808C9.69114 13.6384 10.9215 12.4483 10.992 10.9545C11.056 9.53291 9.84848 8.28515 8.36471 8.24033ZM35.9645 10.9115C35.9535 13.5991 33.7397 15.7991 31.0713 15.7754C28.4029 15.7516 26.2184 13.5598 26.223 10.8996C26.2285 8.21929 28.4496 6.0165 31.1189 6.04303C33.8056 6.07047 35.9755 8.2513 35.9645 10.9115ZM31.0457 8.24033C29.562 8.28698 28.3544 9.53657 28.4203 10.9563C28.4898 12.452 29.7239 13.6403 31.1454 13.5808C32.6365 13.5186 33.8266 12.2809 33.7663 10.8557C33.7022 9.3527 32.4975 8.19459 31.0457 8.24033Z" fill="#C8FDC5"/>
</svg>
