<svg width="41" height="37" viewBox="0 0 41 37" fill="none" xmlns="http://www.w3.org/2000/svg">
<path d="M20.4204 36.9999C20.6534 36.9999 20.8941 36.9999 21.1262 36.9885C29.2205 36.7166 36.3522 30.7646 38.0861 22.8361C38.386 21.4402 38.5346 20.0162 38.5295 18.5885V17.8211L38.7891 17.9243C38.8782 17.9594 38.9606 17.9973 39.0411 18.0342C39.1789 18.1045 39.3246 18.158 39.4751 18.1934C39.5463 18.2069 39.6186 18.2139 39.6911 18.2143C40.0654 18.2143 40.3439 17.9935 40.6481 17.4563V17.0072C40.5723 16.9048 40.4984 16.8016 40.4245 16.6973C40.235 16.4368 40.0455 16.1677 39.8389 15.9214C39.494 15.5083 39.1293 15.0989 38.7759 14.7029C38.647 14.5589 38.5191 14.4187 38.3912 14.2709C38.1145 13.9591 37.8104 13.7971 37.5119 13.7971C37.2135 13.7971 36.9245 13.9553 36.6592 14.2557C36.0376 14.9549 35.4218 15.6513 34.8306 16.324C34.3151 16.9115 34.2497 17.4155 34.6306 17.8665C34.7123 17.9724 34.8173 18.0581 34.9374 18.1169C35.0575 18.1757 35.1895 18.2061 35.3232 18.2057C35.6215 18.1895 35.9099 18.094 36.1589 17.9291L36.4432 17.7585V18.092C36.4432 18.3194 36.4507 18.5525 36.4564 18.778C36.4823 19.2814 36.474 19.786 36.4318 20.2883C35.8756 25.488 33.4112 29.5565 29.1049 32.381C26.5078 34.0877 23.4675 34.9959 20.3597 34.9931C17.8516 34.9938 15.3777 34.4106 13.1341 33.2895C10.8905 32.1684 8.93865 30.5403 7.43327 28.5342L7.41337 28.5086C7.18503 28.2035 6.98701 27.9401 6.64023 27.8634C6.56092 27.8456 6.47989 27.8367 6.39862 27.8368C6.23571 27.8348 6.07481 27.873 5.93019 27.948C5.78558 28.0231 5.66171 28.1326 5.56958 28.267C5.31755 28.6318 5.33271 29.0809 5.61032 29.4703C6.4215 30.6093 7.36873 31.645 8.43096 32.5543C11.8826 35.5038 15.916 36.9999 20.4166 36.9999H20.4204ZM20.3351 30.7693H21.7563H22.6574C23.3519 30.7693 23.7536 30.359 23.7583 29.6541V29.3841C23.7583 28.9369 23.7659 28.4745 23.7517 28.0216C23.7403 27.6691 23.9412 27.5318 24.125 27.4313C24.8536 27.0362 25.4031 26.7179 25.9072 26.3986C26.0184 26.3199 26.1501 26.2754 26.2862 26.2707C26.4124 26.2745 26.5349 26.3139 26.6396 26.3844C27.0669 26.6459 27.5283 26.9131 28.0504 27.2001C28.2382 27.3111 28.4511 27.3727 28.6691 27.3792C29.0197 27.3792 29.321 27.1802 29.5408 26.805C30.2893 25.5297 31.0691 24.1796 31.8574 22.7925C32.2041 22.1832 32.0535 21.646 31.4329 21.2765C30.9857 21.0112 30.5072 20.7298 30.0183 20.4664C29.717 20.3034 29.682 20.0723 29.6876 19.8468C29.7094 19.0888 29.7085 18.4199 29.6876 17.7869C29.6725 17.6556 29.6994 17.5229 29.7645 17.4078C29.8295 17.2928 29.9293 17.2013 30.0496 17.1464C30.4807 16.9134 30.9431 16.6471 31.4623 16.3345C32.0525 15.9782 32.1985 15.4344 31.8621 14.8431C31.1117 13.5214 30.3262 12.1599 29.5266 10.7955C29.32 10.4421 29.013 10.2479 28.6625 10.2479C28.4628 10.2522 28.2675 10.3063 28.094 10.4051C27.6202 10.66 27.1418 10.9405 26.6159 11.2579C26.5158 11.3248 26.3989 11.3622 26.2786 11.3659C26.1491 11.3619 26.0236 11.3201 25.9176 11.2456C25.6192 11.0608 25.3074 10.8827 25.0062 10.7102C24.7049 10.5378 24.3969 10.3616 24.0966 10.1758C24.0067 10.1152 23.9312 10.0355 23.8754 9.94257C23.8196 9.8496 23.7848 9.74553 23.7735 9.63768C23.7574 9.27954 23.7593 8.91665 23.7612 8.56608C23.7612 8.35101 23.7612 8.1293 23.7612 7.91232C23.7526 7.28225 23.3585 6.8701 22.7578 6.86252C21.9638 6.8521 21.166 6.84641 20.3891 6.84641C19.5638 6.84641 18.7338 6.85304 17.9256 6.86441C17.3486 6.87199 16.9535 7.28604 16.9431 7.89337C16.9317 8.53387 16.9327 9.09383 16.9431 9.60452C16.9497 9.88876 16.8484 10.0612 16.5831 10.2024C16.2695 10.3701 15.9549 10.5539 15.6507 10.7301C15.3466 10.9064 15.0519 11.0797 14.745 11.2446C14.6401 11.2972 14.5241 11.3238 14.4067 11.3223C14.3085 11.324 14.2112 11.3029 14.1225 11.2607C13.7975 11.093 13.4782 10.9064 13.1702 10.7263C12.9997 10.6268 12.8292 10.5274 12.6567 10.4307C12.467 10.3163 12.2509 10.253 12.0295 10.2469C11.6789 10.2469 11.3795 10.4364 11.1644 10.8088C10.3828 12.1428 9.60299 13.493 8.84596 14.8213C8.49729 15.4353 8.6413 15.9754 9.25432 16.343C9.6949 16.6083 10.1715 16.8897 10.6661 17.1559C10.7812 17.2065 10.8772 17.2927 10.9397 17.4019C11.0023 17.511 11.0283 17.6373 11.0138 17.7623C11.0034 18.1081 11.0043 18.4615 11.0053 18.8045C11.0062 19.1475 11.0053 19.5189 10.9958 19.8771C10.9891 19.9855 10.9591 20.0911 10.9077 20.1868C10.8564 20.2825 10.7849 20.3659 10.6983 20.4314C10.4017 20.6209 10.0928 20.799 9.79344 20.9695C9.62194 21.0643 9.45045 21.1657 9.28085 21.2661C8.6413 21.6451 8.4935 22.1804 8.85164 22.8095C9.63047 24.1758 10.4036 25.5146 11.1493 26.7889C11.3786 27.1793 11.6742 27.3773 12.0276 27.3773C12.2541 27.37 12.4749 27.3047 12.669 27.1878C12.8585 27.0817 13.048 26.9699 13.2375 26.8619C13.5284 26.6923 13.8287 26.517 14.1338 26.3578C14.2159 26.3183 14.3061 26.2985 14.3972 26.3C14.5098 26.2985 14.6211 26.3245 14.7213 26.3758C15.0169 26.5369 15.3116 26.7093 15.5967 26.8752C15.9208 27.0647 16.26 27.2598 16.5916 27.4389C16.7068 27.4886 16.8032 27.5737 16.8667 27.6819C16.9303 27.7901 16.9577 27.9157 16.945 28.0406C16.9327 28.5692 16.9365 29.0932 16.945 29.674C16.9507 30.3533 17.3562 30.7627 18.028 30.7674C18.3302 30.7674 18.6315 30.7674 18.9338 30.7674L20.3351 30.7693ZM26.0967 23.9143C25.8475 23.9143 25.6031 24.0327 25.3056 24.2999C24.5312 24.9968 23.6208 25.5256 22.6318 25.8528C21.9278 26.0869 21.7345 26.3597 21.7336 27.1253V28.7237H18.9537V28.0604C18.9537 27.7165 18.9537 27.3792 18.9537 27.0429C18.9537 26.3796 18.7282 26.0688 18.1303 25.8784C17.0864 25.5403 16.1272 24.9824 15.3172 24.2421C15.0662 24.0157 14.834 23.9095 14.5867 23.9095C14.3652 23.9181 14.1495 23.9833 13.9604 24.099C13.6516 24.2715 13.3493 24.4468 13.0291 24.6315L12.5951 24.8817L12.4312 24.9764L11.0441 22.5746L11.6391 22.2306C11.9471 22.0525 12.2465 21.88 12.5449 21.7057C13.0897 21.3864 13.247 21.0425 13.1238 20.4399C12.9041 19.381 12.9021 18.2885 13.1181 17.2289C13.2546 16.5656 13.1096 16.2454 12.5222 15.9024C12.2256 15.7281 11.9281 15.5556 11.6249 15.3794L11.0441 15.0421L12.4312 12.6431L12.5951 12.7378C12.7524 12.8326 12.905 12.9169 13.0537 13.0031C13.3777 13.1926 13.6838 13.3679 13.9936 13.5385C14.1779 13.6526 14.3882 13.7179 14.6047 13.7279C14.8378 13.7279 15.0529 13.6332 15.2841 13.4238C16.1272 12.6629 17.1208 12.0877 18.2004 11.7354C18.7139 11.5667 18.9461 11.2418 18.9518 10.6809C18.9518 10.3265 18.9518 9.97309 18.9518 9.59978V8.89296H21.7336V9.56378C21.7336 9.91624 21.7336 10.2621 21.7336 10.606C21.7336 11.256 21.9619 11.5715 22.5645 11.7676C23.5807 12.0967 24.5167 12.6351 25.3122 13.348C25.5964 13.6048 25.8371 13.7194 26.0853 13.7194C26.2824 13.7194 26.4984 13.6484 26.7647 13.4958L27.6562 12.9832L28.2541 12.6393L29.6384 15.0412L29.2461 15.2695C29.0813 15.3642 28.9306 15.459 28.779 15.5414L28.5393 15.6788C28.3915 15.7631 28.238 15.8503 28.0902 15.9403C27.5966 16.2388 27.4364 16.6035 27.553 17.155C27.7841 18.2397 27.787 19.3606 27.5615 20.4465C27.4393 21.0377 27.589 21.375 28.1129 21.6896C28.418 21.8725 28.7212 22.0478 29.0424 22.2335C29.1855 22.3159 29.3267 22.3993 29.4773 22.4855L29.6403 22.5802L28.2513 24.9811L27.6544 24.6382C27.354 24.4648 27.0717 24.3018 26.7884 24.1398C26.5051 23.9778 26.2947 23.9143 26.0967 23.9143ZM3.16204 23.8688C3.30169 23.8669 3.43943 23.8361 3.56662 23.7784C3.6938 23.7206 3.80767 23.6372 3.90107 23.5334C4.57378 22.8019 5.28249 21.9994 6.067 21.0794C6.18981 20.9348 6.26866 20.7581 6.29423 20.5701C6.31981 20.3821 6.29105 20.1907 6.21134 20.0185C6.13163 19.8464 6.00431 19.7006 5.84442 19.5985C5.68453 19.4963 5.49874 19.4421 5.30902 19.4422C5.12063 19.4429 4.93561 19.4922 4.7718 19.5853C4.72064 19.6146 4.67042 19.6468 4.61926 19.68L4.53872 19.7312L4.24879 19.9112V19.5701C4.24879 19.3389 4.24216 19.103 4.23553 18.8756C4.20845 18.3703 4.217 17.8637 4.26111 17.3596C4.87602 11.7932 7.60666 7.56649 12.3772 4.79133C14.7909 3.39177 17.5317 2.65533 20.3218 2.65666C22.8361 2.66026 25.3152 3.24809 27.5634 4.37376C29.8116 5.49943 31.7675 7.13215 33.2767 9.1431C33.5372 9.49272 33.7343 9.72769 34.0754 9.79402C34.1472 9.80828 34.2202 9.81557 34.2933 9.81581C34.4601 9.81811 34.6247 9.77812 34.7718 9.69959C34.919 9.62106 35.0438 9.50653 35.1347 9.3667C35.2499 9.19053 35.3071 8.98277 35.2985 8.77247C35.2898 8.56217 35.2156 8.35983 35.0864 8.19373C34.2517 7.02032 33.2733 5.95621 32.1738 5.0263C28.7335 2.12228 24.7276 0.649902 20.2621 0.649902C20.0234 0.649902 19.7799 0.649902 19.5383 0.66222C11.4553 0.940778 4.33217 6.90326 2.60208 14.8308C2.30315 16.2264 2.15513 17.6501 2.16055 19.0774V19.7729L1.918 19.7008C1.80904 19.6686 1.70766 19.6336 1.60912 19.5995C1.43114 19.5288 1.2454 19.4795 1.05579 19.4526C1.02452 19.4526 0.994205 19.4526 0.961044 19.4526C0.615215 19.4526 0.347076 19.6298 0.163265 19.9785C0.0220909 20.2466 -0.0811806 20.6417 0.227695 21.0103C1.06906 22.0146 1.79008 22.8323 2.49406 23.5827C2.57969 23.6738 2.68322 23.7463 2.79816 23.7955C2.91311 23.8447 3.03699 23.8697 3.16204 23.8688ZM20.3446 23.4311C21.5561 23.4153 22.7127 22.9233 23.5643 22.0615C24.416 21.1997 24.8943 20.0374 24.8958 18.8258C24.8973 17.6142 24.4218 16.4506 23.5723 15.5868C22.7228 14.7229 21.5674 14.2281 20.3559 14.2093H20.3275C19.1096 14.217 17.9438 14.7042 17.0826 15.5654C16.2215 16.4265 15.7342 17.5923 15.7265 18.8102C15.7263 20.0339 16.2115 21.2076 17.0757 22.0739C17.9398 22.9402 19.1124 23.4283 20.336 23.4311H20.3446ZM20.3597 16.2302C20.8692 16.2342 21.3661 16.3885 21.7881 16.6739C22.2101 16.9593 22.5384 17.363 22.7318 17.8343C22.9252 18.3056 22.9751 18.8236 22.8751 19.3231C22.7752 19.8227 22.5299 20.2815 22.17 20.6422C21.8102 21.0028 21.3518 21.2491 20.8525 21.3501C20.3532 21.4512 19.8351 21.4024 19.3634 21.2101C18.8916 21.0177 18.4872 20.6903 18.2009 20.2689C17.9146 19.8475 17.7592 19.3509 17.7542 18.8415C17.7516 18.1535 18.0223 17.4926 18.5068 17.004C18.9913 16.5154 19.6499 16.2392 20.3379 16.2359L20.3597 16.2302Z" fill="#C8FDC5"/>
</svg>
