<svg width="25" height="23" viewBox="0 0 25 23" fill="none" xmlns="http://www.w3.org/2000/svg">
<path d="M11.5311 17.4943C11.8537 18.1871 12.1662 18.8617 12.4828 19.5333C12.7072 19.9695 12.771 20.4708 12.6628 20.9493C12.5455 21.4418 12.3018 21.8747 11.8659 22.1205C11.3184 22.4445 10.7392 22.7116 10.1374 22.9175C9.22709 23.2077 8.26019 22.7081 7.82528 21.7938C7.34385 20.7824 6.87658 19.7619 6.40223 18.7454C6.36076 18.6564 6.31626 18.5694 6.25558 18.442C5.85101 18.6301 5.46061 18.8172 5.06414 18.9983C4.09723 19.4413 3.09594 19.2208 2.50326 18.4278C2.39357 18.2749 2.2997 18.1112 2.2231 17.9393C1.61625 16.64 1.00941 15.339 0.402563 14.0363C-0.15978 12.8277 0.228601 11.6807 1.46555 11.17C2.74903 10.641 3.82921 9.86121 4.84365 8.92566C7.28822 6.67225 9.77932 4.47547 12.2532 2.25037C13.3425 1.27841 14.89 1.58183 15.511 2.90273C17.1676 6.43659 18.8173 9.97449 20.4598 13.5164C21.0767 14.8464 20.3182 16.227 18.8698 16.4343C16.4539 16.7816 14.037 17.1238 11.6191 17.4609C11.5889 17.4696 11.5594 17.4808 11.5311 17.4943ZM7.26496 16.3342C7.38026 16.3211 7.44297 16.315 7.50466 16.3069C8.34009 16.1869 9.17484 16.0659 10.0089 15.9438C12.8408 15.5433 15.6728 15.1431 18.5047 14.7433C18.9669 14.6775 19.0357 14.541 18.8355 14.1122C17.224 10.6525 15.6108 7.19144 13.9959 3.72905C13.8118 3.3346 13.6581 3.30527 13.3314 3.59959L10.8716 5.81457L4.99536 11.0891C4.90333 11.171 4.80724 11.2276 4.88714 11.3925C5.63862 12.9875 6.37796 14.5885 7.12539 16.1855C7.16287 16.2429 7.21011 16.2932 7.26496 16.3342ZM3.33665 12.1874C2.89062 12.3958 2.46786 12.5859 2.05116 12.7943C1.86405 12.8853 1.83876 13.0421 1.92675 13.2272C2.08959 13.567 2.24636 13.9099 2.40515 14.2507C2.8677 15.2446 3.32991 16.2361 3.79179 17.2253C3.8727 17.4002 3.97688 17.5762 4.19028 17.4882C4.6353 17.3072 5.06616 17.0908 5.52332 16.8814L3.33665 12.1874ZM7.95373 17.9818C8.44426 19.0357 8.91558 20.0522 9.39094 21.0656C9.40528 21.1065 9.42857 21.1437 9.45911 21.1744C9.48965 21.2052 9.52667 21.2287 9.56747 21.2434C9.60826 21.258 9.65181 21.2633 9.69493 21.259C9.73806 21.2547 9.77967 21.2408 9.81674 21.2183C10.1434 21.0706 10.4671 20.9149 10.7907 20.7632C10.9738 20.6752 11.0416 20.5336 10.9536 20.3434C10.5706 19.5148 10.1839 18.6888 9.79348 17.8655C9.76921 17.8139 9.69234 17.7482 9.64379 17.7542C9.09359 17.819 8.5454 17.9009 7.95373 17.9848V17.9818ZM23.6659 4.61606C22.9408 4.9478 22.2136 5.2765 21.4965 5.62746C21.3006 5.72471 21.1506 5.8946 21.0782 6.10092C21.0058 6.30724 21.0169 6.53366 21.1091 6.73192C21.2901 7.14356 21.7655 7.37214 22.1842 7.1911C22.9398 6.8634 23.6862 6.51042 24.4235 6.14328C24.5868 6.0532 24.7144 5.91004 24.7852 5.7375C24.8561 5.56497 24.8658 5.37341 24.8129 5.19458C24.7057 4.80923 24.378 4.55739 23.9117 4.55739C23.8277 4.56704 23.7452 4.58673 23.6659 4.61606ZM18.8021 0.181034C18.6014 0.144179 18.3941 0.18043 18.2179 0.28322C18.0416 0.386009 17.908 0.548537 17.8412 0.741354C17.5823 1.42911 17.3355 2.12091 17.0857 2.81272C16.8996 3.33258 17.0979 3.81603 17.5631 3.99303C18.0284 4.17002 18.5098 3.92931 18.707 3.3963C18.9531 2.73214 19.1959 2.06697 19.4352 1.40079C19.4666 1.30444 19.4916 1.20612 19.5101 1.10647C19.5131 0.604814 19.2309 0.267004 18.8021 0.181034ZM24.2303 13.213C24.3984 13.1598 24.5457 13.0554 24.6515 12.9142C24.7572 12.7731 24.8161 12.6024 24.82 12.4261C24.8249 12.245 24.7726 12.0669 24.6706 11.9171C24.5685 11.7673 24.4219 11.6535 24.2515 11.5917C23.5314 11.322 22.8073 11.0601 22.079 10.8059C21.868 10.7348 21.6377 10.7485 21.4366 10.8442C21.2356 10.9399 21.0796 11.11 21.0017 11.3186C20.9238 11.5272 20.9301 11.7579 21.0192 11.9619C21.1084 12.166 21.2733 12.3274 21.4793 12.412C22.2065 12.6921 22.9428 12.9501 23.6761 13.213C23.7643 13.2377 23.8542 13.256 23.9451 13.2676C24.0413 13.2558 24.1366 13.2375 24.2303 13.213Z" fill="#C8FDC5"/>
</svg>
