<svg width="38" height="40" viewBox="0 0 38 40" fill="none" xmlns="http://www.w3.org/2000/svg">
<path d="M9.69069 39.7913C9.35882 39.79 9.03039 39.724 8.72384 39.5968C8.40854 39.4727 8.12149 39.2863 7.87987 39.0488C7.63825 38.8112 7.44702 38.5274 7.3176 38.2142C7.23596 38.0237 7.15395 37.8339 7.07159 37.6449C6.79335 37.0003 6.50545 36.3375 6.2358 35.68C6.16275 35.5017 6.02632 35.2643 5.68469 35.2643C5.63903 35.2649 5.59346 35.2685 5.54826 35.275C5.15937 35.3319 4.76189 35.3824 4.37837 35.4308C3.9637 35.4823 3.53613 35.5382 3.11501 35.5994C2.92121 35.6287 2.72553 35.6438 2.52953 35.6446C1.61317 35.6446 0.928851 35.289 0.437904 34.5585C-0.146505 33.6883 -0.145431 32.7322 0.437904 31.7256C1.68514 29.577 2.9485 27.3887 4.16996 25.2734L5.44083 23.0733C5.8974 22.2837 5.83724 21.8175 5.19375 21.1557C4.88006 20.8334 4.55455 20.5112 4.23979 20.2028C4.05931 20.0256 3.87775 19.8472 3.70265 19.6657C2.69819 18.6634 2.1675 17.486 2.17072 16.2613C2.17394 15.0366 2.70786 13.8581 3.71876 12.859L4.09798 12.483C4.40093 12.1801 4.71462 11.8686 5.02831 11.5688C5.27039 11.3453 5.46173 11.0725 5.58942 10.7688C5.7171 10.465 5.77817 10.1374 5.76849 9.80809C5.76849 9.60934 5.76849 9.40953 5.75882 9.20864C5.73143 8.61506 5.75047 8.02024 5.81576 7.42963C6.14341 5.10058 7.93531 3.56758 10.3793 3.52354H10.433C10.6908 3.52354 10.9487 3.51495 11.2065 3.51495C11.4471 3.51495 11.6609 3.51495 11.8575 3.52784H11.9832C12.3066 3.53179 12.6273 3.46917 12.9254 3.34387C13.2235 3.21856 13.4926 3.03326 13.716 2.79947C14.3413 2.18069 14.9138 1.64355 15.4714 1.15905C16.3079 0.410627 17.3915 -0.00217276 18.5139 8.60125e-06C19.6363 0.00218996 20.7183 0.419198 21.5518 1.17086C22.089 1.64892 22.6057 2.18069 23.1031 2.69419L23.2266 2.82096C23.4534 3.05825 23.7268 3.24611 24.0296 3.37274C24.3324 3.49938 24.6581 3.56206 24.9863 3.55684C25.1313 3.55684 25.2764 3.55684 25.4225 3.55684H25.8221C26.4225 3.53985 27.0232 3.5758 27.6172 3.66427C29.5982 4.01663 31.0549 5.7054 31.1624 7.76373C31.1946 8.38144 31.1903 9.01527 31.1849 9.62761V9.77586C31.1744 10.1054 31.2348 10.4334 31.3622 10.7376C31.4895 11.0418 31.6808 11.315 31.9229 11.5388C32.4182 12.0136 32.8898 12.497 33.3775 12.9912C35.2339 14.8884 35.2253 17.6353 33.356 19.5239C33.1498 19.7312 32.9414 19.9364 32.7319 20.1416C32.4536 20.4123 32.1668 20.6938 31.8918 20.9795C31.7028 21.1833 31.5371 21.4074 31.3976 21.6477C31.1924 21.9861 31.2021 22.3385 31.4277 22.722C33.5354 26.3434 35.1415 29.1129 36.6347 31.7138C36.8559 32.0818 36.9851 32.4978 37.0113 32.9265C37.0375 33.3551 36.9599 33.7837 36.7851 34.176C36.6184 34.5371 36.367 34.8527 36.0522 35.0958C35.7375 35.3389 35.3687 35.5025 34.9771 35.5726C34.8018 35.6051 34.6237 35.6205 34.4454 35.6188C34.1393 35.6125 33.8337 35.59 33.5301 35.5511C33.3679 35.5328 33.2003 35.5146 33.0359 35.5006C32.4988 35.4576 31.9552 35.3706 31.447 35.2857C31.3938 35.2763 31.3399 35.2713 31.2859 35.2707C30.9206 35.2707 30.7756 35.535 30.6983 35.7337C30.3695 36.5738 30.0086 37.4128 29.6895 38.153C29.2673 39.1327 28.5422 39.6731 27.5345 39.758C27.441 39.7666 27.3487 39.7709 27.2584 39.7709C26.3109 39.7709 25.5729 39.3293 25.0658 38.4592C24.2579 37.0755 23.4436 35.666 22.6562 34.2985C22.2888 33.6625 21.9214 33.0262 21.554 32.3895C21.4992 32.2949 21.4466 32.2015 21.3853 32.1102L21.3101 31.9866L21.2134 31.8287L21.0426 31.9007C19.9329 32.3712 19.1089 32.5807 18.387 32.5807C17.635 32.5807 16.9335 32.3658 16.0236 31.8717L15.8474 31.775L15.74 31.9447L15.6637 32.0618C15.6057 32.151 15.5455 32.2423 15.4897 32.3379L14.2994 34.379C13.5312 35.6961 12.7374 37.0583 11.9499 38.3936C11.4235 39.2831 10.6006 39.7913 9.69069 39.7913ZM6.00591 32.8933C7.09737 32.8933 7.9525 33.4638 8.4123 34.5047C8.52939 34.7701 8.64434 35.0419 8.75607 35.3072C8.82374 35.4684 8.89143 35.6295 8.96018 35.7917C9.10091 36.1194 9.24271 36.446 9.38989 36.793L9.77771 37.6674L14.0652 30.0894L13.9577 29.9745C13.2917 29.2225 12.877 29.0281 11.9435 29.0248H11.9155C11.7651 29.0248 11.6147 29.0248 11.4643 29.0313C11.3139 29.0377 11.1689 29.0377 11.0228 29.0377C10.8079 29.0377 10.6328 29.0313 10.4717 29.0162C9.91961 28.983 9.37242 28.893 8.83879 28.7477C7.86441 28.449 7.07159 27.8034 6.41306 26.7742L6.22291 26.4766L2.24055 33.3596L2.67026 33.3026L3.61778 33.1812C4.28491 33.0953 4.91443 33.0147 5.55148 32.9255C5.70205 32.9045 5.85388 32.8937 6.00591 32.8933ZM24.8821 29.0259C24.3299 29.0259 23.839 29.2268 23.3781 29.6404C23.0623 29.9251 23.0204 30.2033 23.2363 30.5707C24.1323 32.0973 25.0304 33.6561 25.8995 35.1633C26.2325 35.742 26.5659 36.3203 26.8996 36.8982C26.9437 36.9745 26.9931 37.0465 27.0511 37.1303C27.0812 37.1733 27.1134 37.2216 27.1499 37.2764L27.3744 37.6137L27.86 36.4266L28.5776 34.6777C29.0611 33.496 29.9033 32.903 31.0829 32.903C31.2626 32.9035 31.4421 32.9168 31.62 32.9427C32.2313 33.0287 32.8415 33.0985 33.4871 33.1716C33.7847 33.2059 34.0898 33.2403 34.4035 33.279L34.8332 33.3295L30.8175 26.409L30.6274 26.7098C29.6476 28.2707 28.2747 29.0291 26.4312 29.0291C26.3786 29.0291 26.3238 29.0291 26.2722 29.0291C26.1401 29.0291 26.0069 29.0291 25.8747 29.0291H25.5052H25.1389H24.8821V29.0259ZM11.4138 26.4777C11.6889 26.4777 11.9832 26.4777 12.2733 26.4863C13.3291 26.5024 14.3391 26.9204 15.0975 27.6551C15.5015 28.0354 15.9 28.4361 16.2857 28.825L16.7455 29.287C17.2418 29.7822 17.8198 30.039 18.401 30.039C18.9822 30.039 19.544 29.7843 20.0349 29.3031C20.2498 29.0947 20.4582 28.883 20.6688 28.6714C21.0082 28.3298 21.3606 27.9763 21.7162 27.6422C22.4775 26.9101 23.4887 26.495 24.5448 26.4809C24.7908 26.4809 25.0347 26.4745 25.2184 26.4745H25.8436C26.0402 26.4745 26.3002 26.4745 26.5623 26.467C27.788 26.4358 28.655 25.5528 28.67 24.3184C28.6765 23.8038 28.6765 23.2441 28.67 22.5996C28.6582 21.2546 29.1277 20.1384 30.1053 19.1866C30.5618 18.7418 31.0915 18.2251 31.6093 17.6998C32.4966 16.792 32.4988 15.5727 31.6157 14.6649C31.3074 14.3426 30.9883 14.03 30.68 13.7228C30.4651 13.5079 30.2503 13.2931 30.0354 13.0782C29.5964 12.649 29.2495 12.1348 29.0159 11.567C28.7822 10.9992 28.6667 10.3898 28.6765 9.77586C28.6765 9.19789 28.6765 8.6296 28.6765 8.15047C28.67 6.7915 27.8256 5.93315 26.4817 5.90844C26.2389 5.90307 25.9811 5.90092 25.6943 5.90092C25.4074 5.90092 25.1034 5.90092 24.808 5.90092H24.7489C23.4716 5.90092 22.3962 5.44543 21.4605 4.50436L21.0168 4.05853C20.6548 3.69435 20.281 3.31835 19.905 2.95417C19.5118 2.55002 18.9744 2.31823 18.4106 2.3096C17.8433 2.32002 17.303 2.55353 16.9066 2.95954L16.7219 3.1368C16.406 3.43975 16.0773 3.75344 15.7808 4.08969C14.6775 5.33263 13.4174 5.93638 11.9134 5.93638C11.7469 5.93638 11.5739 5.92886 11.4009 5.91274H11.3816C11.2473 5.91274 11.1109 5.91274 10.9755 5.90522C10.8402 5.8977 10.6973 5.90844 10.5576 5.90844C10.3621 5.90844 10.1988 5.91489 10.0463 5.92993C8.92473 6.03736 8.15984 6.87745 8.1448 8.02156C8.1448 8.47168 8.1448 8.92932 8.1448 9.37085V9.73611C8.1567 10.3529 8.044 10.9658 7.81345 11.538C7.58289 12.1103 7.23922 12.6301 6.80302 13.0664C6.57886 13.2927 6.3529 13.5208 6.12515 13.7507C5.82435 14.0536 5.52463 14.3577 5.22598 14.6628C4.32036 15.5931 4.32251 16.7974 5.23242 17.7298C5.61809 18.1252 6.01557 18.5205 6.40017 18.903L6.72245 19.2252C7.54642 20.0449 7.98795 20.9162 8.07282 21.8873C8.12439 22.4846 8.12868 23.1002 8.13191 23.6964C8.13191 23.8984 8.13191 24.1014 8.13191 24.3044C8.15125 25.5871 9.02141 26.4627 10.2977 26.482C10.5211 26.482 10.7453 26.482 10.9702 26.482L11.4138 26.4777ZM17.2429 20.4467C16.9206 20.4467 16.5919 20.2888 16.2932 19.9912C15.3543 19.0555 14.4025 18.0994 13.3841 17.0681C12.8362 16.5138 12.7889 15.7865 13.2702 15.3009C13.3766 15.1891 13.5046 15.1 13.6464 15.039C13.7882 14.9781 13.9409 14.9466 14.0952 14.9464C14.4673 14.9575 14.82 15.1146 15.0771 15.3836C15.5445 15.8402 16.0107 16.2978 16.4866 16.7651L17.2622 17.5268L18.3601 16.4364C19.1243 15.678 19.8867 14.9192 20.6473 14.16C20.8958 13.9129 21.1432 13.6644 21.3896 13.4144C21.7839 13.0159 22.1932 12.6044 22.6003 12.2059C22.842 11.9628 23.1696 11.8247 23.5124 11.8213C23.6671 11.8206 23.8204 11.8508 23.9634 11.91C24.1063 11.9692 24.236 12.0563 24.345 12.1661C24.808 12.6313 24.7886 13.3801 24.3009 13.871C22.1524 16.0357 20.1413 18.0457 18.1582 20.0159C17.8681 20.3038 17.5609 20.4467 17.2429 20.4467Z" fill="#C8FDC5"/>
</svg>
