<svg width="38" height="37" viewBox="0 0 38 37" fill="none" xmlns="http://www.w3.org/2000/svg">
<path d="M28.3706 26.6181L29.7627 28.0071C30.0042 27.7455 30.2538 27.4479 30.5314 27.1793C31.0465 26.6782 31.734 26.6632 32.2432 27.1633C33.5139 28.421 34.8028 29.6638 36.0185 30.9716C37.0106 32.036 37.2872 33.3188 36.71 34.6908C36.1087 36.0859 35.0233 36.8786 33.5029 36.9899C33.0443 37.0265 32.5832 36.964 32.1509 36.8066C31.7186 36.6492 31.3252 36.4007 30.9974 36.0779C29.6785 34.8161 28.3917 33.5182 27.1129 32.2164C26.6458 31.7423 26.6759 31.0518 27.1449 30.5597C27.4105 30.2801 27.7052 30.0266 27.9698 29.778L26.5747 28.408C22.8886 31.4146 18.6452 32.6694 13.8828 31.8856C9.893 31.2292 6.63483 29.2499 4.13834 26.0669C1.73759 22.9884 0.576335 19.1227 0.883212 15.2309C1.19009 11.3391 2.94286 7.70322 5.79642 5.0391C8.64998 2.37499 12.3975 0.875713 16.3012 0.836483C20.2049 0.797253 23.9819 2.22091 26.8884 4.82714C32.9247 10.2 34.1213 19.8041 28.3706 26.6181ZM29.7036 16.4888C29.7084 12.9835 28.3218 9.61961 25.8483 7.13584C23.3749 4.65206 20.0168 3.25148 16.5116 3.24166C9.20448 3.2156 3.26141 9.1276 3.23636 16.4447C3.2113 23.7618 9.10527 29.6698 16.4484 29.7109C23.7294 29.755 29.6945 23.8079 29.7036 16.4888ZM29.7356 31.4216C30.6827 32.3767 31.6208 33.3258 32.5709 34.2719C32.6896 34.403 32.8413 34.4999 33.01 34.5528C33.1788 34.6057 33.3587 34.6125 33.531 34.5726C33.7595 34.5273 33.9717 34.4216 34.1455 34.2665C34.3193 34.1114 34.4483 33.9125 34.5192 33.6906C34.6875 33.2196 34.5131 32.8337 34.1824 32.501C33.3439 31.6591 32.5041 30.8183 31.6629 29.9785C31.5787 29.8943 31.4865 29.8161 31.4143 29.75L29.7356 31.4216ZM16.4204 17.1212C15.9513 16.6562 15.4572 16.1621 14.9571 15.674C14.421 15.1518 13.7274 15.1458 13.1872 15.663C12.8445 15.9907 12.5138 16.3324 12.178 16.6652C10.9313 17.9119 9.68487 19.1587 8.4388 20.4054C7.97678 20.8684 7.88659 21.3645 8.16019 21.8616C8.57911 22.6203 9.46305 22.7636 10.0844 22.1532C11.1017 21.151 12.1049 20.1428 13.1101 19.1316C13.4258 18.8139 13.7284 18.4832 14.0521 18.1424C14.5302 18.6235 14.9601 19.0594 15.3921 19.4924C16.1838 20.2901 16.7661 20.2901 17.5679 19.4884C19.0899 17.969 20.6102 16.448 22.1289 14.9254C22.2211 14.8321 22.2632 14.6878 22.3293 14.5676L22.4907 14.6818C22.4907 15.2531 22.4616 15.8263 22.5027 16.3936C22.5217 16.7006 22.6157 16.9982 22.7763 17.2605C23.0539 17.6844 23.6021 17.8097 24.0792 17.6463C24.5803 17.475 24.888 17.035 24.891 16.4236C24.899 14.8732 24.902 13.3228 24.891 11.7724C24.886 10.9306 24.3899 10.4605 23.543 10.4585C22.0183 10.4585 20.4933 10.4585 18.968 10.4585C18.1792 10.4585 17.639 10.9596 17.646 11.6792C17.6521 12.3808 18.1802 12.8558 18.9599 12.8628C19.5312 12.8628 20.1025 12.8628 20.6747 12.8628L16.4204 17.1212Z" fill="#C8FDC5"/>
</svg>
