<svg width="42" height="42" viewBox="0 0 42 42" fill="none" xmlns="http://www.w3.org/2000/svg">
<path d="M21.3314 0.00927734C22.0411 0.335899 22.264 0.89773 22.2455 1.65985C22.2065 3.17278 22.2455 4.6888 22.229 6.20277C22.2198 7.11484 21.3776 7.70441 20.5651 7.38189C20.0762 7.18777 19.7876 6.80876 19.7835 6.28494C19.7671 4.59328 19.7722 2.9006 19.7835 1.20895C19.7835 0.59884 20.1943 0.26811 20.6802 0.00927734H21.3314ZM0.00952148 21.3311C0.268354 21.82 0.599084 22.2257 1.20919 22.2278C2.90084 22.236 4.59866 22.2401 6.28518 22.2278C6.80901 22.2278 7.18801 21.934 7.38214 21.4451C7.70465 20.6337 7.11509 19.7904 6.20301 19.7812C4.68905 19.7668 3.17303 19.8038 1.66009 19.7648C0.897974 19.7463 0.336143 19.9702 0.00952148 20.6789V21.3311ZM23.4092 39.5357C25.4059 39.4925 26.9014 38.1788 27.1068 36.1945C27.2013 35.2885 27.1376 34.3662 27.153 33.4521C27.1849 31.594 27.7467 29.9496 29.0522 28.5794C30.6211 26.9567 31.6309 24.8753 31.9342 22.6386C32.3913 19.4238 31.6487 16.4934 29.5626 14.0222C26.5912 10.5012 22.7457 9.27075 18.2644 10.2794C13.5171 11.3476 10.0403 15.7231 9.93759 20.5957C9.87083 23.7376 10.8908 26.4656 13.0836 28.7284C14.0498 29.7122 14.6407 31.0035 14.7537 32.3777C14.8564 33.489 14.8297 34.6137 14.8472 35.7333C14.8821 37.9405 16.4515 39.511 18.6619 39.5336C19.0245 39.5336 19.387 39.5336 19.7701 39.5336C19.7701 39.9599 19.764 40.3276 19.7701 40.6953C19.7845 41.4543 20.3094 41.9987 21.0119 41.9905C21.6991 41.9833 22.2106 41.4471 22.227 40.7086C22.2352 40.3306 22.227 39.9506 22.227 39.5326C22.6512 39.5367 23.0302 39.5439 23.4092 39.5357ZM17.3492 32.1404C17.0411 31.1729 16.8264 30.2033 16.4187 29.3241C16.0481 28.551 15.5691 27.8347 14.9961 27.197C14.0255 26.0959 13.1822 24.9373 12.7899 23.5086C11.9682 20.5166 12.4468 17.7701 14.4723 15.3708C17.2239 12.1097 21.9558 11.552 25.4871 13.6473C29.3808 15.9573 30.8137 21.327 28.5006 25.2198C28.1497 25.8208 27.734 26.3815 27.2609 26.8919C25.9683 28.2433 25.1234 29.9601 24.841 31.8087C24.8235 31.9114 24.7917 32.0192 24.7629 32.1404H17.3492ZM24.6797 34.6291C24.6797 35.1129 24.7219 35.5895 24.6695 36.0558C24.6328 36.3376 24.4941 36.5961 24.2797 36.7826C24.0652 36.969 23.7899 37.0704 23.5058 37.0675C21.8405 37.0826 20.1759 37.0826 18.5119 37.0675C18.2076 37.0665 17.9153 36.9488 17.6953 36.7385C17.4753 36.5283 17.3445 36.2416 17.3297 35.9377C17.303 35.5186 17.3246 35.0954 17.3246 34.6332L24.6797 34.6291ZM40.6442 22.2319C41.4453 22.2257 41.9969 21.7183 41.9999 21.0076C42.003 20.2968 41.4504 19.775 40.6544 19.775C39.0692 19.7696 37.4841 19.7696 35.8989 19.775C35.0988 19.775 34.5462 20.2824 34.5431 20.9983C34.54 21.7142 35.0926 22.2309 35.8886 22.2309C36.6846 22.2309 37.4745 22.2309 38.2664 22.2309C39.0583 22.2309 39.8471 22.238 40.639 22.2329L40.6442 22.2319ZM5.96061 6.61053C5.74492 7.13949 5.87228 7.6058 6.26258 7.99919C7.3883 9.13449 8.51812 10.2643 9.65205 11.3887C10.1923 11.9197 10.9133 11.9279 11.4125 11.4441C11.9117 10.9604 11.9261 10.2116 11.3838 9.65489C10.2622 8.5148 9.13644 7.37984 7.98711 6.26542C7.75703 6.04254 7.415 5.93469 7.26813 5.85458C6.60769 5.85458 6.14447 6.15963 5.96061 6.61053ZM32.2948 11.4297C33.4729 10.2896 34.6263 9.12388 35.7808 7.96016C35.9216 7.82853 36.0274 7.66395 36.0887 7.48124C36.15 7.29853 36.1649 7.10343 36.132 6.91353C36.1048 6.68741 36.0128 6.474 35.867 6.29904C35.7212 6.12408 35.5279 5.99505 35.3104 5.9275C34.806 5.75392 34.3675 5.90388 33.9998 6.2685C33.1466 7.11621 32.2961 7.96666 31.4484 8.81985C31.131 9.13826 30.8013 9.44844 30.5066 9.78842C30.1707 10.1746 30.1214 10.6265 30.3391 11.0887C30.5569 11.5509 30.9554 11.7677 31.6035 11.8077C31.7617 11.7245 32.0832 11.6341 32.2948 11.4297Z" fill="#C8FDC5"/>
</svg>
