<svg width="16" height="16" viewBox="0 0 16 16" fill="none" xmlns="http://www.w3.org/2000/svg">
<path d="M14.1519 5.75735C14.2538 5.60283 14.3364 5.4746 14.4231 5.34776C14.6215 5.05625 14.9452 4.97645 15.216 5.1508C15.4868 5.32516 15.5476 5.66187 15.3585 5.9543C15.0366 6.45152 14.7114 6.94614 14.383 7.43813C14.1846 7.73518 13.8715 7.79975 13.5721 7.60603C13.07 7.28192 12.5701 6.95367 12.0726 6.62126C11.7991 6.43907 11.7257 6.11389 11.8881 5.8519C12.0505 5.58991 12.3885 5.51335 12.6722 5.68493C12.7613 5.74589 12.8587 5.79374 12.9614 5.82699C12.8664 5.62128 12.7848 5.40772 12.6741 5.21031C11.4338 2.99631 9.54357 1.85242 7.00071 1.90685C4.11514 1.96865 1.65023 4.19833 1.21389 7.05807C0.671924 10.6097 3.30657 13.6078 6.41216 14.0501C9.44348 14.4814 12.5089 12.5206 13.2193 9.30204C13.2843 9.00638 13.4623 8.83156 13.716 8.79974C13.8078 8.78831 13.901 8.79916 13.9877 8.83138C14.0744 8.86361 14.1521 8.91625 14.2141 8.98485C14.2762 9.05346 14.3208 9.13601 14.3441 9.2255C14.3675 9.315 14.369 9.40881 14.3484 9.49899C13.7824 12.3181 11.4887 14.5796 8.64737 15.1188C4.80517 15.8504 1.09074 13.4523 0.193148 9.65951C-0.646323 6.10882 1.31998 2.44974 4.74428 1.19514C8.54266 -0.196445 12.7423 1.78462 14.0929 5.6056C14.1062 5.64342 14.1219 5.68032 14.1519 5.75735ZM7.8328 5.63927C7.83003 5.27027 7.59111 5.02304 7.25347 5.02488C6.91584 5.02673 6.68752 5.27027 6.68752 5.63189C6.68291 6.40832 6.68291 7.1846 6.68752 7.96073C6.68983 8.34541 6.91815 8.57511 7.30052 8.57788C8.04221 8.58341 8.78405 8.58341 9.52604 8.57788C9.8872 8.57511 10.1326 8.33987 10.1377 8.01193C10.1427 7.68398 9.89135 7.43398 9.5242 7.43029C9.02974 7.42522 8.53528 7.43029 8.04082 7.43029H7.83465C7.83188 6.81176 7.83465 6.22551 7.83096 5.63927H7.8328Z" fill="#828282"/>
</svg>