<svg width="524" height="1057" viewBox="0 0 524 1057" fill="none" xmlns="http://www.w3.org/2000/svg">
<path d="M524 932C299.772 932 118 750.228 118 526C118 301.772 299.772 120 524 120" stroke="#E0E0E0" stroke-width="2"/>
<path d="M524 1048C235.707 1048 2 814.293 2 526C2 237.707 235.707 4 524 4" stroke="#E0E0E0" stroke-width="2" stroke-dasharray="10 10"/>
<path d="M524 803C371.017 803 247 679.207 247 526.5C247 373.793 371.017 250 524 250" stroke="#E0E0E0" stroke-width="2" stroke-dasharray="10 10"/>
<path d="M524 688C435.082 688 363 615.694 363 526.5C363 437.306 435.082 365 524 365" stroke="#E0E0E0" stroke-width="2"/>
<path d="M360 143C360 137.477 364.477 133 370 133H385C390.523 133 395 137.477 395 143V158C395 163.523 390.523 168 385 168H370C364.477 168 360 163.523 360 158V143Z" fill="#1C3F39"/>
<path d="M179 924C179 918.477 183.477 914 189 914H204C209.523 914 214 918.477 214 924V939C214 944.523 209.523 949 204 949H189C183.477 949 179 944.523 179 939V924Z" fill="#C8FDC5"/>
<path d="M139 159.143C139 156.303 141.303 154 144.143 154H151.857C154.697 154 157 156.303 157 159.143V166.857C157 169.697 154.697 172 151.857 172H144.143C141.303 172 139 169.697 139 166.857V159.143Z" fill="#1C3F39"/>
<path d="M355 894.143C355 891.303 357.303 889 360.143 889H367.857C370.697 889 373 891.303 373 894.143V901.857C373 904.697 370.697 907 367.857 907H360.143C357.303 907 355 904.697 355 901.857V894.143Z" fill="#1C3F39"/>
<path d="M475 1044.14C475 1041.3 477.303 1039 480.143 1039H487.857C490.697 1039 493 1041.3 493 1044.14V1051.86C493 1054.7 490.697 1057 487.857 1057H480.143C477.303 1057 475 1054.7 475 1051.86V1044.14Z" fill="#1C3F39"/>
<path d="M447 5.14286C447 2.30254 449.303 0 452.143 0H459.857C462.697 0 465 2.30254 465 5.14286V12.8571C465 15.6975 462.697 18 459.857 18H452.143C449.303 18 447 15.6975 447 12.8571V5.14286Z" fill="#C8FDC5"/>
</svg>
